<svg xmlns="http://www.w3.org/2000/svg" x="0px" y="0px" width="300px" height="68px">
<path fill="#003087" d="M20.51,21.11h-1.9c-0.05-1.88-0.16-3.01-0.35-3.4c-0.1-0.19-0.35-0.34-0.75-0.43
	c-1.05-0.19-2.69-0.29-4.93-0.29c-0.33,0-0.89,0.01-1.68,0.02v2.5c0,3.56,0.04,6.05,0.13,7.48c0.09,1.43,0.2,2.27,0.33,2.51
	c0.1,0.16,0.28,0.3,0.54,0.39c0.25,0.1,1.36,0.22,3.32,0.37v1.77l-8.37-0.13c-1.21,0-3.13,0.04-5.76,0.13v-1.9
	c1.63-0.03,2.59-0.1,2.86-0.2c0.12-0.05,0.22-0.13,0.31-0.25c0.12-0.18,0.22-0.57,0.29-1.17c0.05-0.34,0.1-1.42,0.17-3.24
	c0.07-1.82,0.1-3.13,0.1-3.92v-9.3c0-0.21-0.04-2.31-0.13-6.29C4.64,4.62,4.56,3.8,4.42,3.32c-0.03-0.16-0.1-0.29-0.19-0.37
	c-0.1-0.08-0.3-0.16-0.61-0.24C3.3,2.64,2.45,2.56,1.07,2.47v-1.9L8.62,0.7l10.24-0.2c1.43,0,2.79,0.07,4.08,0.22l0.18,0.31
	c-0.15,0.85-0.28,1.94-0.4,3.26s-0.18,2.47-0.19,3.46h-1.77c0-0.36-0.04-1.17-0.11-2.44c-0.03-0.66-0.07-1.06-0.13-1.19
	c-0.03-0.11-0.09-0.18-0.18-0.23c-0.25-0.18-0.84-0.36-1.76-0.53c-0.93-0.17-2-0.26-3.22-0.26c-0.24,0-0.9,0.02-2,0.05
	c-1.09,0.03-1.83,0.06-2.21,0.08c-0.18,1.5-0.26,4.22-0.26,8.14v3.15c1.8,0.11,3.01,0.16,3.65,0.16c1.81,0,2.96-0.09,3.43-0.27
	c0.19-0.06,0.33-0.23,0.42-0.52c0.12-0.37,0.19-1.22,0.22-2.55h1.9V21.11z M24.56,9c0.2,0.18,0.33,0.33,0.37,0.46
	c0.1,0.24,0.16,0.61,0.18,1.13c0.04,1.32,0.07,2.81,0.07,4.46v4.49l-0.02,3.39c0,1.86,0.03,3.01,0.09,3.43
	c0.07,0.68,0.27,1.39,0.58,2.13c0.32,0.74,0.78,1.4,1.4,2c0.61,0.59,1.4,1.07,2.35,1.42c1.33,0.48,2.76,0.72,4.28,0.72
	c1.29,0,2.44-0.16,3.43-0.49c1-0.33,1.85-0.82,2.57-1.47c0.72-0.65,1.27-1.37,1.67-2.17c0.39-0.8,0.66-1.77,0.79-2.9
	c0.13-1.13,0.19-2.23,0.19-3.29v-4.15c0-1.23,0.03-2.9,0.1-5.02c0.06-2.12,0.14-3.32,0.21-3.58c0.08-0.26,0.18-0.44,0.29-0.54
	c0.24-0.18,0.82-0.27,1.75-0.27V7.31l-3.31,0.11c-0.19,0.01-0.32,0.02-0.41,0.02c-0.34,0-1.41-0.04-3.22-0.13v1.44
	c1.09,0.04,1.8,0.15,2.13,0.35c0.16,0.1,0.28,0.24,0.35,0.42c0.1,0.31,0.17,1.2,0.21,2.68c0.04,0.68,0.07,2.58,0.07,5.69v3.6
	c0,2.51-0.18,4.21-0.53,5.1c-0.36,0.89-0.95,1.62-1.78,2.18c-0.82,0.56-1.94,0.84-3.33,0.84c-1.22,0-2.22-0.21-3.01-0.63
	c-0.79-0.42-1.37-0.96-1.76-1.64c-0.38-0.68-0.62-1.57-0.72-2.68c-0.03-0.5-0.05-1.83-0.05-3.99l-0.01-2.06v-4.1
	c0-2.49,0.06-4.09,0.2-4.82c0.05-0.31,0.15-0.51,0.31-0.62c0.3-0.22,1.01-0.34,2.11-0.34V7.31l-0.55,0.02L29.52,7.4l-2.04,0.04
	l-4.91-0.13v1.44L24.56,9z M45.45,32.04c2.01-0.09,3.51-0.13,4.5-0.13c0.65,0,1.81,0.02,3.48,0.06c2.18,0.05,3.36,0.07,3.54,0.07
	c1.29,0,2.24-0.03,2.86-0.08c0.3-0.03,0.59-0.09,0.87-0.18c0.01-0.23,0.06-0.9,0.15-2.03l0.38-3.6c0-0.06,0.02-0.25,0.06-0.59h-1.31
	c-0.19,1.17-0.38,2.2-0.58,3.1c-0.08,0.35-0.17,0.58-0.25,0.66c-0.08,0.08-0.33,0.16-0.74,0.23c-1.13,0.22-2.46,0.33-3.98,0.33
	c-0.51,0-1.45-0.04-2.83-0.13c-0.01-0.35-0.02-1.36-0.03-3.01c-0.01-1.65-0.02-3.32-0.03-5v-5.1c0-1.98,0.01-3.61,0.03-4.91
	c0.02-1.29,0.06-2.02,0.11-2.18c0.05-0.16,0.13-0.27,0.24-0.35c0.25-0.15,0.95-0.26,2.1-0.32V7.31c-1.63,0.09-3.36,0.13-5.19,0.13
	c-1.63,0-3.08-0.04-4.36-0.13v1.57c1.31,0.06,2.09,0.18,2.32,0.35c0.11,0.07,0.18,0.18,0.22,0.32c0.1,0.32,0.16,1.58,0.2,3.8
	c0.01,0.87,0.01,3.17,0.01,6.89c0,2.53-0.01,4.7-0.03,6.51c-0.02,1.81-0.06,2.86-0.11,3.15c-0.01,0.07-0.04,0.14-0.07,0.19
	c-0.06,0.1-0.2,0.21-0.42,0.35c-0.49,0.33-0.87,0.56-1.13,0.69V32.04 M62.31,32.04c1.86-0.09,3.49-0.13,4.91-0.13
	c1.33,0,2.96,0.04,4.91,0.13V30.6c-1.24-0.05-1.98-0.14-2.22-0.29c-0.24-0.15-0.39-0.37-0.46-0.68c-0.04-0.52-0.07-2.05-0.07-4.6
	V14.44c0-2.82,0.02-4.43,0.05-4.84h2.11c1.14,0,2.12,0.05,2.93,0.14c0.26,0.02,0.41,0.06,0.47,0.12c0.07,0.08,0.14,0.33,0.19,0.76
	c0.11,0.84,0.17,1.72,0.19,2.64h1.31c0.03-2.49,0.05-3.78,0.06-3.88c0.01-0.54,0.05-1.17,0.13-1.89l-0.14-0.18
	c-0.47,0.05-0.94,0.08-1.4,0.09c-0.86,0.03-2.54,0.04-5.06,0.04h-6.05c-2.46,0-4.12-0.01-4.97-0.04c-0.53-0.02-1.03-0.05-1.5-0.09
	L57.6,7.49c0.07,0.6,0.11,1.16,0.13,1.68c0.01,0.31,0.03,1.67,0.06,4.09h1.31c0.02-1.03,0.1-1.95,0.23-2.78
	c0.05-0.34,0.1-0.55,0.17-0.62c0.05-0.06,0.23-0.11,0.56-0.14c0.81-0.08,1.75-0.12,2.82-0.12h2.11c0.04,0.34,0.07,1.96,0.07,4.84
	v10.59c0.04,2.55,0.01,4.07-0.1,4.58c-0.08,0.33-0.24,0.57-0.47,0.71c-0.23,0.14-0.96,0.24-2.18,0.28V32.04 M81.31,13.66
	c-0.47,1.58-0.7,3.32-0.7,5.22c0,2.74,0.32,5.01,0.96,6.8c0.64,1.79,1.46,3.06,2.46,3.8c1,0.74,2.18,1.11,3.53,1.11
	c1.27,0,2.41-0.35,3.4-1.06c0.99-0.7,1.78-1.9,2.34-3.58c0.57-1.68,0.85-3.72,0.85-6.12c0-1.65-0.15-3.15-0.46-4.52
	c-0.31-1.36-0.74-2.53-1.32-3.48c-0.57-0.96-1.24-1.69-2.02-2.2c-0.78-0.5-1.81-0.76-3.09-0.76c-1.46,0-2.7,0.4-3.73,1.21
	C82.52,10.89,81.78,12.08,81.31,13.66 M77.36,26.94c-0.93-1.87-1.39-4.21-1.39-7c0-2.16,0.28-4.04,0.84-5.64
	c0.56-1.6,1.35-2.96,2.38-4.08s2.16-1.93,3.37-2.42c1.54-0.62,3.24-0.94,5.08-0.94c1.83,0,3.48,0.3,4.95,0.9
	c1.11,0.46,2.09,1.12,2.94,1.99c0.85,0.87,1.49,1.75,1.93,2.66c0.43,0.91,0.77,1.9,1,2.99c0.23,1.08,0.34,2.28,0.34,3.59
	c0,2.22-0.33,4.27-0.99,6.17c-0.47,1.42-1.17,2.67-2.11,3.77c-0.93,1.1-1.99,1.94-3.17,2.53c-1.63,0.79-3.48,1.18-5.57,1.18
	c-2.25,0-4.18-0.48-5.8-1.44C79.56,30.23,78.28,28.81,77.36,26.94 M98.85,32.04c1.71-0.09,3.06-0.13,4.05-0.13
	c0.27,0,1.36,0.02,3.28,0.07v-1.51c-0.14,0.01-0.24,0.02-0.3,0.02c-0.31,0-0.78-0.05-1.43-0.14c-0.24-0.03-0.4-0.1-0.51-0.18
	c-0.1-0.09-0.17-0.2-0.2-0.34c-0.09-0.29-0.14-1.12-0.18-2.48c-0.09-1.97-0.13-3.87-0.13-5.69v-8.76
	c5.92,8.52,10.49,14.9,13.71,19.15c0.87,0.14,1.74,0.29,2.58,0.46l0.2-0.16c-0.13-1.67-0.2-6.41-0.2-14.21c0-1,0.01-2.55,0.03-4.64
	c0.02-2.1,0.11-3.44,0.26-4.02c0.03-0.12,0.09-0.21,0.16-0.27c0.23-0.18,0.96-0.28,2.17-0.32V7.31c-1.51,0.09-2.75,0.13-3.7,0.13
	c-1.02,0-2.13-0.04-3.35-0.13v1.57c1.33,0.02,2.11,0.14,2.34,0.35c0.14,0.13,0.23,0.41,0.27,0.84c0.13,1.12,0.19,4.82,0.19,11.13
	l-0.06,4.06c-1.39-1.68-3.14-4.02-5.25-7c-2.92-4.13-5.41-7.79-7.47-10.96l-1.4,0.07l-2.21,0.07c-0.61,0-1.56-0.04-2.85-0.13v1.57
	c1.05,0.08,1.69,0.16,1.9,0.23c0.21,0.07,0.37,0.17,0.46,0.29c0.1,0.12,0.17,0.31,0.22,0.57c0.05,0.26,0.08,0.81,0.1,1.67l0.06,5.11
	v5.64c0,1.56-0.01,2.82-0.05,3.79c-0.08,1.71-0.16,2.79-0.21,3.23c-0.06,0.33-0.12,0.54-0.19,0.65c-0.07,0.11-0.16,0.18-0.28,0.23
	c-0.16,0.06-0.83,0.12-2.01,0.19V32.04z M149.46,11.37h-1.9c-0.03,1.33-0.1,2.18-0.22,2.55c-0.09,0.29-0.23,0.46-0.42,0.52
	c-0.47,0.18-1.62,0.27-3.43,0.27c-0.63,0-1.85-0.05-3.65-0.16v-3.15c0-3.92,0.09-6.63,0.26-8.14c0.38-0.02,1.12-0.05,2.22-0.08
	c1.09-0.03,1.76-0.05,1.99-0.05c1.23,0,2.3,0.09,3.22,0.26c0.93,0.17,1.51,0.35,1.76,0.53c0.09,0.05,0.15,0.12,0.18,0.23
	c0.06,0.13,0.1,0.53,0.13,1.19c0.07,1.26,0.11,2.08,0.11,2.44h1.76c0.01-0.99,0.08-2.15,0.19-3.46c0.11-1.32,0.24-2.41,0.4-3.26
	l-0.18-0.31c-1.28-0.15-2.64-0.22-4.08-0.22l-10.24,0.2l-7.55-0.13v1.9c1.38,0.09,2.23,0.17,2.54,0.25
	c0.31,0.08,0.52,0.16,0.61,0.24c0.1,0.08,0.16,0.2,0.2,0.37c0.14,0.48,0.22,1.3,0.25,2.45c0.09,3.98,0.13,6.08,0.13,6.29v9.3
	c0,0.79-0.03,2.1-0.1,3.92c-0.07,1.82-0.12,2.9-0.17,3.24c-0.08,0.6-0.18,0.99-0.29,1.17c-0.09,0.12-0.19,0.2-0.31,0.25
	c-0.27,0.11-1.23,0.17-2.86,0.2v1.9c2.62-0.09,4.55-0.13,5.76-0.13l8.37,0.13v-1.77c-1.96-0.15-3.07-0.27-3.32-0.37
	c-0.25-0.1-0.43-0.23-0.53-0.39c-0.14-0.24-0.25-1.08-0.33-2.51c-0.09-1.43-0.13-3.93-0.13-7.48v-2.5c0.79-0.01,1.35-0.02,1.68-0.02
	c2.24,0,3.88,0.1,4.93,0.29c0.4,0.09,0.65,0.23,0.75,0.43c0.19,0.39,0.31,1.53,0.35,3.4h1.9V11.37z M161.73,7.31
	c-1.64,0.09-3.37,0.13-5.2,0.13c-1.64,0-3.09-0.04-4.35-0.13v1.57c1.08,0.05,1.71,0.1,1.88,0.15c0.17,0.05,0.29,0.12,0.35,0.2
	c0.06,0.08,0.12,0.2,0.15,0.35c0.07,0.38,0.13,1.31,0.17,2.81c0.04,0.67,0.06,2.18,0.06,4.52v7.38c0,1.2-0.02,2.51-0.06,3.92
	c-0.05,0.97-0.09,1.52-0.13,1.66c-0.01,0.11-0.06,0.2-0.13,0.28c-0.08,0.08-0.23,0.15-0.44,0.19c-0.17,0.03-0.79,0.08-1.85,0.12
	v1.57c1.26-0.09,2.7-0.13,4.32-0.13c1.85,0,3.6,0.04,5.24,0.13v-1.57c-0.97-0.02-1.56-0.06-1.75-0.12c-0.2-0.05-0.35-0.12-0.44-0.21
	c-0.1-0.09-0.16-0.21-0.2-0.38c-0.1-0.37-0.16-1.15-0.16-2.37l-0.07-3.23v-7.11c0-0.22,0.01-1.78,0.03-4.68
	c0.01-0.85,0.02-1.42,0.03-1.73c0.02-0.57,0.07-0.95,0.14-1.15c0.04-0.12,0.1-0.21,0.18-0.29c0.08-0.08,0.22-0.14,0.41-0.2
	c0.19-0.05,0.8-0.1,1.82-0.13V7.31 M162.36,32.04c1.71-0.09,3.06-0.13,4.05-0.13c0.27,0,1.36,0.02,3.28,0.07v-1.51
	c-0.14,0.01-0.25,0.02-0.3,0.02c-0.31,0-0.78-0.05-1.43-0.14c-0.23-0.03-0.4-0.1-0.5-0.18c-0.1-0.09-0.17-0.2-0.2-0.34
	c-0.08-0.29-0.14-1.12-0.18-2.48c-0.09-1.97-0.13-3.87-0.13-5.69v-8.76c5.92,8.52,10.49,14.9,13.7,19.15
	c0.88,0.14,1.74,0.29,2.59,0.46l0.2-0.16c-0.13-1.67-0.2-6.41-0.2-14.21c0-1,0.01-2.55,0.03-4.64c0.02-2.1,0.11-3.44,0.26-4.02
	c0.03-0.12,0.09-0.21,0.16-0.27c0.23-0.18,0.95-0.28,2.17-0.32V7.31c-1.51,0.09-2.75,0.13-3.7,0.13c-1.02,0-2.13-0.04-3.35-0.13
	v1.57c1.33,0.02,2.11,0.14,2.34,0.35c0.14,0.13,0.23,0.41,0.27,0.84c0.13,1.12,0.19,4.82,0.19,11.13l-0.07,4.06
	c-1.38-1.68-3.13-4.02-5.25-7c-2.92-4.13-5.41-7.79-7.47-10.96l-1.4,0.07l-2.21,0.07c-0.61,0-1.56-0.04-2.85-0.13v1.57
	c1.05,0.08,1.69,0.16,1.9,0.23c0.21,0.07,0.37,0.17,0.46,0.29c0.09,0.12,0.16,0.31,0.22,0.57c0.05,0.26,0.08,0.81,0.1,1.67
	l0.07,5.11v5.64c0,1.56-0.02,2.82-0.05,3.79c-0.08,1.71-0.15,2.79-0.21,3.23c-0.06,0.33-0.12,0.54-0.19,0.65
	c-0.07,0.11-0.16,0.18-0.28,0.23c-0.16,0.06-0.83,0.12-2.01,0.19V32.04z M191.87,22.49c0.95,0.04,2.03,0.07,3.23,0.07
	c1.17,0,2.21-0.02,3.13-0.07l-3.27-9.23L191.87,22.49z M185.24,32.04V30.6c0.82-0.07,1.3-0.13,1.46-0.19
	c0.15-0.05,0.29-0.14,0.4-0.25c0.12-0.11,0.23-0.29,0.35-0.53c0.12-0.24,0.46-1.14,1.03-2.7c0.26-0.73,0.76-2.18,1.51-4.34
	l3.94-11.4l1.33-4.02h2.09l6.77,18.48l0.95,2.43l0.6,1.63c0.11,0.21,0.21,0.37,0.29,0.46c0.09,0.1,0.19,0.17,0.3,0.21
	c0.11,0.05,0.41,0.09,0.88,0.12c0.16,0.02,0.38,0.05,0.68,0.09v1.44l-4.2-0.13l-5.28,0.13V30.6c1.21-0.06,1.9-0.14,2.05-0.24
	c0.15-0.1,0.23-0.27,0.23-0.5c0-0.29-0.11-0.78-0.34-1.45l-1.3-3.89h-7.8l-0.67,2.12c-0.49,1.63-0.74,2.64-0.74,3.04
	c0,0.28,0.08,0.48,0.23,0.6c0.25,0.17,0.97,0.27,2.16,0.32v1.44l-3.46-0.13L185.24,32.04z M207.33,32.04
	c1.71-0.09,3.06-0.13,4.05-0.13c0.27,0,1.36,0.02,3.28,0.07v-1.51c-0.14,0.01-0.24,0.02-0.3,0.02c-0.31,0-0.78-0.05-1.43-0.14
	c-0.24-0.03-0.4-0.1-0.5-0.18c-0.1-0.09-0.17-0.2-0.2-0.34c-0.08-0.29-0.14-1.12-0.18-2.48c-0.09-1.97-0.13-3.87-0.13-5.69v-8.76
	c5.92,8.52,10.49,14.9,13.7,19.15c0.87,0.14,1.74,0.29,2.59,0.46l0.2-0.16c-0.13-1.67-0.2-6.41-0.2-14.21c0-1,0.01-2.55,0.03-4.64
	c0.02-2.1,0.11-3.44,0.26-4.02c0.03-0.12,0.09-0.21,0.16-0.27c0.23-0.18,0.95-0.28,2.17-0.32V7.31c-1.51,0.09-2.75,0.13-3.71,0.13
	c-1.02,0-2.13-0.04-3.34-0.13v1.57c1.33,0.02,2.11,0.14,2.33,0.35c0.14,0.13,0.23,0.41,0.27,0.84c0.13,1.12,0.2,4.82,0.2,11.13
	l-0.07,4.06c-1.38-1.68-3.13-4.02-5.25-7c-2.93-4.13-5.41-7.79-7.47-10.96l-1.4,0.07l-2.21,0.07c-0.61,0-1.56-0.04-2.85-0.13v1.57
	c1.05,0.08,1.68,0.16,1.9,0.23c0.22,0.07,0.37,0.17,0.46,0.29c0.1,0.12,0.17,0.31,0.22,0.57c0.05,0.26,0.09,0.81,0.1,1.67l0.07,5.11
	v5.64c0,1.56-0.02,2.82-0.05,3.79c-0.08,1.71-0.15,2.79-0.21,3.23c-0.06,0.33-0.12,0.54-0.19,0.65c-0.07,0.11-0.17,0.18-0.28,0.23
	c-0.16,0.06-0.83,0.12-2.01,0.19V32.04z M250.58,28.41c-1.07,0.66-2.06,1.12-2.96,1.39s-1.87,0.41-2.89,0.41
	c-1.55,0-2.87-0.28-3.97-0.85c-0.8-0.42-1.59-1.1-2.38-2.03c-0.78-0.93-1.42-2.1-1.89-3.51c-0.48-1.42-0.71-3.07-0.71-4.97
	c0-3.14,0.7-5.58,2.11-7.34c1.4-1.75,3.28-2.63,5.62-2.63c1.29,0,2.35,0.2,3.18,0.61c0.83,0.41,1.58,1.02,2.25,1.84
	c0.07,0.78,0.11,1.81,0.13,3.11h1.25c0.03-1.13,0.13-2.35,0.28-3.68c0.09-0.83,0.22-1.53,0.37-2.08l-0.07-0.23
	c-1.42-0.6-2.67-1.02-3.75-1.25c-1.07-0.23-2.28-0.35-3.64-0.35c-3.93,0-6.98,1.18-9.14,3.53c-2.15,2.35-3.23,5.38-3.23,9.1
	c0,2.17,0.36,4.18,1.1,6.03c0.47,1.23,1.15,2.36,2.05,3.41c0.9,1.05,1.99,1.89,3.27,2.53c1.63,0.79,3.5,1.19,5.62,1.19
	c1.5,0,2.74-0.14,3.74-0.43c0.99-0.29,2.12-0.82,3.37-1.6l0.69-1.79L250.58,28.41z M260.72,7.31c-1.64,0.09-3.37,0.13-5.2,0.13
	c-1.64,0-3.09-0.04-4.35-0.13v1.57c1.08,0.05,1.71,0.1,1.88,0.15c0.17,0.05,0.29,0.12,0.35,0.2c0.06,0.08,0.11,0.2,0.15,0.35
	c0.07,0.38,0.13,1.31,0.17,2.81c0.04,0.67,0.06,2.18,0.06,4.52v7.38c0,1.2-0.02,2.51-0.06,3.92c-0.05,0.97-0.09,1.52-0.13,1.66
	c-0.01,0.11-0.06,0.2-0.13,0.28c-0.08,0.08-0.23,0.15-0.44,0.19c-0.17,0.03-0.79,0.08-1.85,0.12v1.57c1.26-0.09,2.7-0.13,4.32-0.13
	c1.85,0,3.6,0.04,5.24,0.13v-1.57c-0.97-0.02-1.55-0.06-1.75-0.12s-0.35-0.12-0.44-0.21c-0.1-0.09-0.16-0.21-0.2-0.38
	c-0.1-0.37-0.16-1.15-0.16-2.37l-0.07-3.23v-7.11c0-0.22,0.01-1.78,0.03-4.68c0.01-0.85,0.02-1.42,0.03-1.73
	c0.03-0.57,0.07-0.95,0.14-1.15c0.04-0.12,0.09-0.21,0.18-0.29c0.08-0.08,0.22-0.14,0.41-0.2c0.19-0.05,0.8-0.1,1.82-0.13V7.31
	 M266.75,22.49c0.95,0.04,2.03,0.07,3.23,0.07c1.17,0,2.21-0.02,3.12-0.07l-3.27-9.23L266.75,22.49z M260.12,32.04V30.6
	c0.82-0.07,1.3-0.13,1.46-0.19c0.15-0.05,0.29-0.14,0.4-0.25c0.11-0.11,0.23-0.29,0.35-0.53c0.12-0.24,0.46-1.14,1.03-2.7
	c0.26-0.73,0.76-2.18,1.51-4.34l3.94-11.4l1.33-4.02h2.09l6.77,18.48l0.94,2.43l0.6,1.63c0.11,0.21,0.21,0.37,0.3,0.46
	c0.09,0.1,0.19,0.17,0.3,0.21c0.11,0.05,0.41,0.09,0.88,0.12c0.15,0.02,0.38,0.05,0.68,0.09v1.44l-4.2-0.13l-5.28,0.13V30.6
	c1.21-0.06,1.9-0.14,2.05-0.24c0.15-0.1,0.23-0.27,0.23-0.5c0-0.29-0.12-0.78-0.34-1.45l-1.3-3.89h-7.8l-0.67,2.12
	c-0.49,1.63-0.74,2.64-0.74,3.04c0,0.28,0.08,0.48,0.23,0.6c0.24,0.17,0.96,0.27,2.15,0.32v1.44l-3.46-0.13L260.12,32.04z
	 M283.06,32.04c2.02-0.09,3.52-0.13,4.5-0.13c0.65,0,1.81,0.02,3.48,0.06c2.18,0.05,3.36,0.07,3.54,0.07c1.29,0,2.24-0.03,2.86-0.08
	c0.29-0.03,0.59-0.09,0.87-0.18c0.01-0.23,0.06-0.9,0.15-2.03l0.39-3.6c0-0.06,0.02-0.25,0.05-0.59h-1.31
	c-0.19,1.17-0.38,2.2-0.58,3.1c-0.08,0.35-0.16,0.58-0.25,0.66c-0.08,0.08-0.33,0.16-0.74,0.23c-1.13,0.22-2.45,0.33-3.97,0.33
	c-0.51,0-1.45-0.04-2.83-0.13c-0.01-0.35-0.03-1.36-0.03-3.01c-0.01-1.65-0.02-3.32-0.03-5v-5.1c0-1.98,0.01-3.61,0.03-4.91
	s0.06-2.02,0.12-2.18c0.05-0.16,0.13-0.27,0.24-0.35c0.25-0.15,0.95-0.26,2.1-0.32V7.31c-1.63,0.09-3.36,0.13-5.19,0.13
	c-1.63,0-3.09-0.04-4.36-0.13v1.57c1.31,0.06,2.09,0.18,2.32,0.35c0.11,0.07,0.18,0.18,0.21,0.32c0.1,0.32,0.16,1.58,0.2,3.8
	c0.01,0.87,0.01,3.17,0.01,6.89c0,2.53-0.01,4.7-0.03,6.51c-0.02,1.81-0.06,2.86-0.11,3.15c-0.01,0.07-0.03,0.14-0.07,0.19
	c-0.06,0.1-0.2,0.21-0.42,0.35c-0.49,0.33-0.87,0.56-1.14,0.69V32.04 M74.6,64.65c-0.65,0.46-1.3,0.79-1.95,1.01
	c-0.96,0.31-2,0.47-3.12,0.47c-2.49,0-4.49-0.75-6-2.26c-1.51-1.51-2.27-3.5-2.27-5.98c0.01-1.41,0.21-2.59,0.6-3.52
	c0.39-0.94,0.9-1.71,1.52-2.32c0.62-0.61,1.34-1.05,2.15-1.34c0.81-0.28,1.8-0.43,2.97-0.45c1.56,0,2.74,0.2,3.55,0.59
	c0.81,0.39,1.25,0.99,1.34,1.79l0.01,1.45h0.75c0.05-0.91,0.13-1.72,0.26-2.41c0.08-0.43,0.22-0.87,0.39-1.32
	c-0.2-0.04-0.76-0.18-1.68-0.42c-0.91-0.24-1.69-0.4-2.32-0.49c-0.63-0.09-1.32-0.13-2.07-0.13c-3.15,0-5.64,0.86-7.46,2.57
	c-1.82,1.71-2.73,3.87-2.73,6.48c0,1.03,0.14,1.98,0.4,2.84c0.27,0.86,0.66,1.66,1.18,2.4c0.52,0.74,1.18,1.4,2,1.99
	c0.81,0.59,1.77,1.05,2.86,1.37c1.09,0.32,2.27,0.48,3.54,0.48c1.08,0,2.08-0.11,2.99-0.33c0.92-0.22,1.86-0.57,2.81-1.06l0.48-1.14
	L74.6,64.65z M79.36,53.74c-0.5,1.1-0.74,2.34-0.74,3.73c0,0.78,0.08,1.57,0.23,2.36c0.15,0.8,0.35,1.49,0.59,2.07
	c0.39,0.98,0.91,1.8,1.54,2.47c0.63,0.67,1.34,1.16,2.12,1.47c0.78,0.31,1.64,0.47,2.6,0.47c1.32,0,2.46-0.32,3.44-0.96
	c0.97-0.64,1.7-1.54,2.17-2.71c0.48-1.17,0.72-2.51,0.72-4.02c0-1.3-0.17-2.5-0.52-3.59c-0.21-0.67-0.5-1.27-0.85-1.82
	c-0.35-0.54-0.77-1.02-1.26-1.42c-0.49-0.4-1.12-0.74-1.89-1.02c-0.78-0.28-1.62-0.42-2.52-0.42c-1.3,0-2.44,0.29-3.42,0.87
	C80.59,51.8,79.86,52.64,79.36,53.74 M76.67,61.96c-0.4-1.17-0.6-2.33-0.6-3.47c0-1.29,0.19-2.48,0.58-3.58
	c0.39-1.1,1.03-2.08,1.93-2.95c0.9-0.88,1.92-1.53,3.06-1.98c1.14-0.45,2.44-0.67,3.91-0.67c1.35,0,2.58,0.19,3.68,0.57
	c1.11,0.38,2.01,0.88,2.72,1.5c0.71,0.63,1.27,1.31,1.68,2.05c0.31,0.56,0.56,1.21,0.74,1.96c0.18,0.75,0.28,1.55,0.28,2.41
	c0,2.75-0.93,5.04-2.78,6.87c-1.86,1.83-4.2,2.75-7.02,2.75c-1.28,0-2.48-0.21-3.6-0.62c-1.11-0.42-2.05-1.04-2.82-1.86
	C77.65,64.13,77.07,63.13,76.67,61.96 M95.16,50.42c0.97,0.02,1.55,0.06,1.76,0.13c0.2,0.07,0.35,0.18,0.45,0.32
	c0.09,0.14,0.15,0.6,0.18,1.38c0.05,1.06,0.06,2.15,0.06,3.27v5.68c-0.03,2.15-0.05,3.31-0.06,3.48c-0.03,0.63-0.09,1.03-0.18,1.19
	c-0.08,0.12-0.23,0.22-0.44,0.29c-0.21,0.07-0.8,0.11-1.76,0.13v0.78c1.87-0.07,3.19-0.1,3.98-0.1c0.98,0,2.05,0.03,3.22,0.1v-0.78
	c-0.96-0.02-1.55-0.06-1.76-0.13c-0.21-0.07-0.36-0.18-0.46-0.33c-0.1-0.15-0.15-0.61-0.17-1.39c-0.04-1.05-0.06-2.13-0.06-3.25
	v-5.45c0.05-2.26,0.08-3.46,0.09-3.57c0.01-0.38,0.04-0.8,0.07-1.24c0.8-0.26,1.62-0.39,2.45-0.39c1.33,0,2.32,0.3,2.98,0.89
	c0.65,0.59,0.98,1.39,0.98,2.4c0,1.15-0.38,2.08-1.14,2.78c-0.76,0.7-1.87,1.06-3.34,1.06c-0.22,0-0.54-0.01-0.96-0.04l-0.12,0.37
	c0.78,0.89,1.6,1.89,2.46,2.98c0.53,0.66,1.14,1.49,1.84,2.48c1.25,1.78,2.15,2.98,2.68,3.6c0.69-0.07,1.28-0.1,1.75-0.1
	c0.46,0,0.99,0.03,1.61,0.1v-0.78c-0.41,0-0.68-0.02-0.8-0.06c-0.08-0.02-0.15-0.07-0.22-0.12c-0.14-0.13-0.66-0.77-1.53-1.91
	l-3.09-4.07c-0.76-0.99-1.24-1.63-1.44-1.91c1.12-0.25,2.02-0.59,2.72-1.04c0.7-0.45,1.23-1.01,1.59-1.69
	c0.37-0.68,0.55-1.36,0.55-2.05c0-0.74-0.2-1.42-0.59-2.04c-0.39-0.63-0.95-1.08-1.66-1.36c-0.72-0.28-1.85-0.42-3.41-0.42
	c-0.2,0-0.95,0.03-2.22,0.08c-0.98,0.03-1.7,0.05-2.17,0.05l-2.36-0.06c-0.65-0.02-1.14-0.03-1.46-0.04V50.42 M112.04,50.42
	c0.97,0.02,1.55,0.06,1.76,0.13c0.2,0.07,0.35,0.18,0.45,0.32c0.09,0.14,0.15,0.6,0.18,1.38c0.05,1.06,0.06,2.15,0.06,3.27v5.68
	c-0.03,2.15-0.05,3.31-0.06,3.48c-0.02,0.63-0.09,1.03-0.18,1.19c-0.08,0.12-0.23,0.22-0.44,0.29c-0.21,0.07-0.8,0.11-1.76,0.13
	v0.78c2.3-0.07,3.59-0.1,3.87-0.1c0.72,0,1.84,0.03,3.36,0.1v-0.78c-0.97-0.02-1.55-0.06-1.76-0.13c-0.21-0.07-0.36-0.18-0.45-0.33
	c-0.09-0.15-0.15-0.61-0.18-1.39c-0.04-1.05-0.07-2.13-0.07-3.25v-6.18c0-1.85,0.03-3.21,0.1-4.07c0.89-0.28,1.72-0.43,2.5-0.43
	c0.86,0,1.6,0.15,2.21,0.45c0.61,0.29,1.06,0.73,1.36,1.3c0.3,0.57,0.45,1.21,0.45,1.91c0,0.73-0.15,1.4-0.46,2
	c-0.3,0.6-0.73,1.05-1.28,1.36c-0.55,0.3-1.13,0.45-1.74,0.45c-0.42,0-0.99-0.09-1.71-0.26l0.27,0.92c0.61,0.11,1.17,0.16,1.69,0.16
	c0.62,0,1.18-0.07,1.67-0.22c0.72-0.21,1.41-0.57,2.08-1.06c0.66-0.5,1.17-1.1,1.52-1.81c0.35-0.71,0.52-1.43,0.52-2.15
	c0-0.8-0.21-1.52-0.63-2.14c-0.42-0.63-1-1.08-1.75-1.37c-0.75-0.29-1.77-0.43-3.08-0.43c-0.18,0-0.38,0.01-0.59,0.02L118,49.7
	c-0.72,0.03-1.4,0.03-2.04,0.03c-0.96,0-2.27-0.03-3.92-0.1V50.42 M130.44,53.74c-0.49,1.1-0.74,2.34-0.74,3.73
	c0,0.78,0.08,1.57,0.23,2.36c0.16,0.8,0.35,1.49,0.59,2.07c0.39,0.98,0.91,1.8,1.54,2.47c0.63,0.67,1.34,1.16,2.12,1.47
	c0.78,0.31,1.65,0.47,2.6,0.47c1.32,0,2.46-0.32,3.43-0.96c0.97-0.64,1.7-1.54,2.18-2.71c0.48-1.17,0.72-2.51,0.72-4.02
	c0-1.3-0.17-2.5-0.52-3.59c-0.21-0.67-0.5-1.27-0.85-1.82c-0.35-0.54-0.77-1.02-1.26-1.42c-0.49-0.4-1.12-0.74-1.9-1.02
	c-0.78-0.28-1.61-0.42-2.51-0.42c-1.3,0-2.44,0.29-3.42,0.87C131.67,51.8,130.94,52.64,130.44,53.74 M127.75,61.96
	c-0.4-1.17-0.6-2.33-0.6-3.47c0-1.29,0.2-2.48,0.58-3.58c0.39-1.1,1.03-2.08,1.93-2.95c0.9-0.88,1.92-1.53,3.06-1.98
	c1.14-0.45,2.44-0.67,3.91-0.67c1.35,0,2.58,0.19,3.68,0.57c1.11,0.38,2.01,0.88,2.72,1.5c0.71,0.63,1.27,1.31,1.68,2.05
	c0.31,0.56,0.56,1.21,0.74,1.96c0.18,0.75,0.28,1.55,0.28,2.41c0,2.75-0.93,5.04-2.78,6.87c-1.85,1.83-4.19,2.75-7.02,2.75
	c-1.29,0-2.49-0.21-3.6-0.62c-1.11-0.42-2.05-1.04-2.82-1.86C128.73,64.13,128.15,63.13,127.75,61.96 M146.61,50.42
	c0.97,0.02,1.55,0.06,1.76,0.13c0.2,0.07,0.36,0.18,0.45,0.32c0.1,0.14,0.15,0.6,0.18,1.38c0.04,1.06,0.06,2.15,0.06,3.27v5.68
	c-0.03,2.15-0.05,3.31-0.06,3.48c-0.03,0.63-0.09,1.03-0.18,1.19c-0.08,0.12-0.23,0.22-0.44,0.29c-0.21,0.07-0.8,0.11-1.76,0.13
	v0.78c1.87-0.07,3.19-0.1,3.98-0.1c0.98,0,2.05,0.03,3.22,0.1v-0.78c-0.96-0.02-1.55-0.06-1.77-0.13c-0.21-0.07-0.36-0.18-0.46-0.33
	c-0.1-0.15-0.15-0.61-0.17-1.39c-0.05-1.05-0.07-2.13-0.07-3.25v-5.45c0.05-2.26,0.08-3.46,0.09-3.57c0.02-0.38,0.04-0.8,0.08-1.24
	c0.8-0.26,1.62-0.39,2.45-0.39c1.33,0,2.32,0.3,2.98,0.89c0.65,0.59,0.98,1.39,0.98,2.4c0,1.15-0.38,2.08-1.14,2.78
	c-0.76,0.7-1.87,1.06-3.35,1.06c-0.22,0-0.54-0.01-0.96-0.04l-0.12,0.37c0.78,0.89,1.6,1.89,2.46,2.98
	c0.53,0.66,1.14,1.49,1.84,2.48c1.25,1.78,2.15,2.98,2.68,3.6c0.69-0.07,1.28-0.1,1.75-0.1c0.46,0,1,0.03,1.61,0.1v-0.78
	c-0.42,0-0.68-0.02-0.8-0.06c-0.07-0.02-0.14-0.07-0.22-0.12c-0.15-0.13-0.65-0.77-1.53-1.91l-3.08-4.07
	c-0.76-0.99-1.24-1.63-1.44-1.91c1.11-0.25,2.02-0.59,2.71-1.04c0.7-0.45,1.23-1.01,1.59-1.69c0.37-0.68,0.55-1.36,0.55-2.05
	c0-0.74-0.2-1.42-0.59-2.04c-0.39-0.63-0.95-1.08-1.66-1.36c-0.72-0.28-1.85-0.42-3.41-0.42c-0.2,0-0.94,0.03-2.22,0.08
	c-0.98,0.03-1.71,0.05-2.17,0.05l-2.35-0.06c-0.65-0.02-1.14-0.03-1.46-0.04V50.42 M168.32,60.2h6.21l-3.06-7.39L168.32,60.2z
	 M165.24,66.97c-0.8,0-1.68,0.03-2.64,0.1v-0.85c0.65-0.01,1.05-0.03,1.21-0.08c0.16-0.05,0.31-0.13,0.44-0.26
	c0.14-0.13,0.33-0.46,0.59-0.99c0.15-0.3,0.68-1.45,1.6-3.44l3.07-6.91c0.34-0.76,1.05-2.45,2.15-5.08h0.78l5.25,12.29
	c0.85,1.99,1.42,3.24,1.7,3.75c0.16,0.29,0.32,0.47,0.51,0.56c0.18,0.09,0.6,0.14,1.25,0.15v0.85c-1.28-0.06-2.17-0.1-2.68-0.1
	l-3.95,0.1v-0.85c0.91-0.02,1.47-0.05,1.67-0.09c0.2-0.04,0.33-0.1,0.4-0.18c0.07-0.08,0.1-0.18,0.1-0.29c0-0.18-0.05-0.41-0.17-0.7
	l-1.51-3.75h-7.1l-1.3,3.15c-0.24,0.57-0.36,0.98-0.36,1.24c0,0.11,0.03,0.21,0.1,0.28c0.09,0.11,0.23,0.18,0.42,0.22
	c0.3,0.06,0.84,0.1,1.59,0.11v0.85C166.98,67.01,165.94,66.97,165.24,66.97 M180.19,52.46c0.07-0.75,0.16-1.19,0.25-1.33
	c0.06-0.08,0.18-0.14,0.38-0.16c0.62-0.08,1.46-0.12,2.51-0.12h1.83l0.05,2.07c0.01,0.41,0.02,0.78,0.02,1.13v7.15
	c-0.05,2.15-0.07,3.31-0.07,3.48c-0.03,0.63-0.09,1.03-0.2,1.19c-0.07,0.12-0.22,0.22-0.43,0.29c-0.21,0.07-0.8,0.11-1.77,0.13v0.78
	C185,67.03,186.28,67,186.6,67c0.74,0,1.84,0.03,3.3,0.07v-0.78c-0.97-0.02-1.55-0.06-1.76-0.13c-0.21-0.07-0.35-0.18-0.45-0.33
	c-0.1-0.15-0.15-0.61-0.18-1.39c-0.05-1.05-0.07-2.14-0.07-3.25v-7.18c0-1.33,0.04-2.39,0.13-3.18h1.5c0.41,0,0.97,0.02,1.67,0.06
	c0.7,0.04,1.11,0.07,1.23,0.1c0.09,0.02,0.16,0.06,0.2,0.1c0.05,0.04,0.08,0.11,0.11,0.21c0.02,0.1,0.07,0.5,0.14,1.21l0.1,1.17
	h0.78c0.03-1.78,0.1-3.14,0.2-4.05c-0.67,0.04-1.74,0.08-3.2,0.12c-2.02,0.05-3.31,0.08-3.87,0.08c-0.52,0-1.55-0.01-3.09-0.05
	c-1.91-0.06-3.31-0.1-4.2-0.14c0.07,0.75,0.12,2.1,0.13,4.05h0.78L180.19,52.46z M201.83,66.28c-0.98-0.02-1.57-0.06-1.78-0.13
	c-0.21-0.07-0.36-0.18-0.46-0.32c-0.09-0.15-0.15-0.61-0.18-1.39c-0.03-1.06-0.04-2.14-0.04-3.25v-5.68
	c0.03-2.16,0.05-3.33,0.06-3.49c0.03-0.63,0.09-1.03,0.18-1.19c0.08-0.12,0.23-0.22,0.44-0.29c0.21-0.07,0.8-0.11,1.77-0.13v-0.78
	c-1.59,0.06-2.79,0.1-3.61,0.1c-0.85,0-2.06-0.03-3.62-0.1v0.78c0.96,0.02,1.55,0.06,1.76,0.13c0.21,0.07,0.36,0.18,0.45,0.32
	c0.1,0.14,0.15,0.6,0.18,1.38c0.04,1.06,0.07,2.15,0.07,3.27v5.68c-0.03,2.15-0.05,3.31-0.07,3.48c-0.03,0.63-0.09,1.03-0.18,1.19
	c-0.08,0.12-0.23,0.22-0.44,0.29c-0.21,0.07-0.8,0.11-1.76,0.13v0.78l3.79-0.1c0.55,0,1.69,0.03,3.44,0.1V66.28 M205.73,53.74
	c-0.5,1.1-0.74,2.34-0.74,3.73c0,0.78,0.08,1.57,0.23,2.36c0.15,0.8,0.35,1.49,0.59,2.07c0.39,0.98,0.91,1.8,1.54,2.47
	c0.63,0.67,1.34,1.16,2.12,1.47c0.78,0.31,1.65,0.47,2.59,0.47c1.32,0,2.46-0.32,3.44-0.96c0.97-0.64,1.7-1.54,2.18-2.71
	c0.48-1.17,0.72-2.51,0.72-4.02c0-1.3-0.17-2.5-0.52-3.59c-0.21-0.67-0.49-1.27-0.85-1.82c-0.35-0.54-0.77-1.02-1.26-1.42
	c-0.49-0.4-1.12-0.74-1.89-1.02c-0.78-0.28-1.62-0.42-2.52-0.42c-1.3,0-2.44,0.29-3.42,0.87C206.96,51.8,206.22,52.64,205.73,53.74
	 M203.04,61.96c-0.4-1.17-0.6-2.33-0.6-3.47c0-1.29,0.19-2.48,0.59-3.58c0.39-1.1,1.03-2.08,1.94-2.95c0.9-0.88,1.92-1.53,3.06-1.98
	c1.14-0.45,2.44-0.67,3.9-0.67c1.35,0,2.58,0.19,3.69,0.57c1.1,0.38,2.01,0.88,2.72,1.5c0.71,0.63,1.27,1.31,1.68,2.05
	c0.31,0.56,0.56,1.21,0.74,1.96c0.18,0.75,0.28,1.55,0.28,2.41c0,2.75-0.93,5.04-2.78,6.87c-1.85,1.83-4.2,2.75-7.02,2.75
	c-1.29,0-2.49-0.21-3.6-0.62c-1.11-0.42-2.06-1.04-2.83-1.86C204.02,64.13,203.44,63.13,203.04,61.96 M221.66,67.07
	c1.12-0.06,2.15-0.1,3.11-0.1c0.87,0,1.67,0.03,2.39,0.1v-0.78c-0.86-0.01-1.43-0.07-1.7-0.18c-0.12-0.05-0.2-0.13-0.26-0.25
	c-0.07-0.16-0.13-0.58-0.16-1.27c-0.04-1.1-0.06-2.06-0.06-2.87v-9.51l8.7,10.51l1.58,2.03c0.32,0.4,0.82,0.99,1.5,1.76
	c0.25,0.29,0.41,0.46,0.46,0.5c0.04,0.03,0.09,0.06,0.14,0.07l0.29,0.06l1.26,0.36c-0.04-3.26-0.06-5.49-0.06-6.68v-5.9
	c0-0.77,0.02-1.7,0.06-2.78c0.03-0.7,0.09-1.13,0.17-1.29c0.05-0.11,0.13-0.2,0.25-0.25c0.27-0.12,0.83-0.18,1.68-0.18v-0.78
	c-0.76,0.06-1.6,0.1-2.53,0.1c-0.99,0-1.96-0.03-2.93-0.1v0.78c0.86,0.01,1.43,0.07,1.7,0.18c0.12,0.05,0.2,0.13,0.26,0.23
	c0.08,0.16,0.13,0.59,0.16,1.26c0.04,1.08,0.06,2.02,0.06,2.82v8.95c-0.31-0.31-0.69-0.73-1.14-1.27c-0.71-0.82-1.65-1.94-2.82-3.36
	l-3.66-4.46l-2.51-3.12c-0.32-0.43-0.83-1.1-1.51-2.01c-0.61,0.06-1.23,0.1-1.84,0.1c-0.37,0-1.26-0.03-2.67-0.1v0.78
	c0.66,0.01,1.09,0.03,1.28,0.07c0.19,0.04,0.37,0.12,0.51,0.25c0.23,0.2,0.38,0.38,0.44,0.53c0.03,0.08,0.05,0.26,0.05,0.53v9.99
	c0,0.78-0.02,1.71-0.06,2.79c-0.03,0.69-0.09,1.12-0.17,1.28c-0.05,0.11-0.13,0.18-0.25,0.23c-0.27,0.12-0.84,0.19-1.71,0.2V67.07
	 M299,40.23H1v2.1h298V40.23z"/>
</svg>
