<?xml version="1.0" encoding="UTF-8"?>
<!-- Created with Inkscape (http://www.inkscape.org/) -->
<svg width="125.83" height="67.721" version="1.1" viewBox="0 0 125.83 67.721" xmlns="http://www.w3.org/2000/svg">
 <g transform="translate(-498.97 -59.426)">
  <g transform="matrix(1.3333 0 0 1.3333 498.97 97.947)">
   <path d="m28.891-14.453c0 4.0117-1.418 7.4219-4.25 10.234-2.8242 2.8125-6.2188 4.2188-10.188 4.2188-3.9805 0-7.3867-1.4062-10.219-4.2188-2.8242-2.8125-4.2344-6.2227-4.2344-10.234 0-3.9688 1.4102-7.3633 4.2344-10.188 2.832-2.832 6.2383-4.25 10.219-4.25 3.9688 0 7.3633 1.418 10.188 4.25 2.832 2.8242 4.25 6.2188 4.25 10.188zm-0.67188 0c0-3.7812-1.3516-7.0195-4.0469-9.7188-2.6992-2.6953-5.9375-4.0469-9.7188-4.0469-3.793 0-7.0391 1.3438-9.7344 4.0312-2.6875 2.6797-4.0312 5.9219-4.0312 9.7344 0 3.793 1.3438 7.0391 4.0312 9.7344 2.6953 2.6875 5.9414 4.0312 9.7344 4.0312 3.8125 0 7.0547-1.3438 9.7344-4.0312 2.6875-2.6953 4.0312-5.9414 4.0312-9.7344zm-0.89062 0c0 1.4688-0.21484 2.8438-0.64062 4.125l-0.10938-0.03125c0.3125-1.125 0.46875-2.1484 0.46875-3.0781 0-0.85156-0.15625-1.5391-0.46875-2.0625-0.30469-0.51953-0.69531-0.78125-1.1719-0.78125-0.63672 0-0.95312 0.33594-0.95312 1 0 0.24219 0.21875 0.66406 0.65625 1.2656 0.4375 0.59375 0.65625 1.3438 0.65625 2.25 0 0.77344-0.17188 1.7305-0.51562 2.875-0.71875 2.375-2.1328 4.2188-4.2344 5.5312-1.9297 1.1992-4.1172 1.7969-6.5625 1.7969-1.793 0-3.1562-0.21094-4.0938-0.64062l0.04687-0.125c0.80078 0.32422 1.8281 0.48438 3.0781 0.48438 0.85156 0 1.5312-0.14844 2.0312-0.45312 0.50781-0.3125 0.76562-0.69141 0.76562-1.1406 0-0.66406-0.33594-1-1-1-0.26172 0-0.6875 0.23047-1.2812 0.6875-0.58594 0.44922-1.3203 0.67188-2.2031 0.67188-0.82422 0-1.793-0.17188-2.9062-0.51562-2.375-0.72656-4.2188-2.1445-5.5312-4.25-1.1992-1.9141-1.7969-4.1172-1.7969-6.6094 0-1.0078 0.21094-2.3672 0.64062-4.0781l0.125 0.04687c-0.32422 0.96094-0.48438 1.9844-0.48438 3.0781 0 1.8672 0.54688 2.7969 1.6406 2.7969 0.63281 0 0.95312-0.31641 0.95312-0.95312 0-0.26953-0.21875-0.70312-0.65625-1.2969-0.4375-0.60156-0.65625-1.3477-0.65625-2.2344 0-0.82031 0.17188-1.7969 0.51562-2.9219 0.71875-2.3633 2.1328-4.2031 4.25-5.5156 1.9141-1.1953 4.1016-1.7969 6.5625-1.7969 1.457 0 2.8164 0.22656 4.0781 0.67188l-0.04687 0.125c-0.6875-0.34375-1.7148-0.51562-3.0781-0.51562-0.85547 0-1.5391 0.15625-2.0469 0.46875-0.5 0.30469-0.75 0.69531-0.75 1.1719 0 0.63672 0.33203 0.95312 1 0.95312 0.25781 0 0.67969-0.21875 1.2656-0.65625 0.59375-0.4375 1.332-0.65625 2.2188-0.65625 0.78906 0 1.7656 0.17188 2.9219 0.51562 2.3633 0.71875 4.2031 2.1484 5.5156 4.2812 1.1953 1.8984 1.7969 4.0703 1.7969 6.5156zm-4.8438 3.8438c0-0.875-0.24219-1.6172-0.71875-2.2344-0.48047-0.61328-1.1328-0.92188-1.9531-0.92188-0.66797 0-1.2344 0.21484-1.7031 0.64062-0.46875 0.42969-0.70312 0.94922-0.70312 1.5625 0 0.51172 0.12891 0.9375 0.39062 1.2812 0.26953 0.34375 0.60938 0.51562 1.0156 0.51562 0.375 0 0.5625-0.17188 0.5625-0.51562 0-0.16406-0.09375-0.36719-0.28125-0.60938-0.1875-0.23828-0.28125-0.50391-0.28125-0.79688 0.01953-0.58203 0.32812-0.875 0.92188-0.875 0.92578 0 1.3789 0.65234 1.3594 1.9531 0 0.71875-0.23047 1.3086-0.6875 1.7656-0.44922 0.46094-1.0078 0.6875-1.6719 0.6875-0.80469 0-1.4648-0.32812-1.9844-0.98438-0.52344-0.65625-0.78125-1.4375-0.78125-2.3438 0-2.082 0.85156-3.3477 2.5625-3.7969 0.375 0.07422 0.65625 0.10156 0.84375 0.07813 0.90625 0 1.3594-0.22656 1.3594-0.6875 0-0.39453-0.39062-0.59375-1.1719-0.59375-0.61719 0-0.94922 0.05469-1 0.15625-0.26172-0.13281-0.47656-0.39062-0.64062-0.76562 1.875-1.4062 2.8125-2.6719 2.8125-3.7969 0-0.90625-0.46875-1.3594-1.4062-1.3594-0.80469 0-1.4844 0.41797-2.0469 1.25-0.55469 0.82422-0.82812 1.7305-0.82812 2.7188 0 0.42969 0.02344 0.73438 0.07813 0.92188-0.75 0.53125-1.8086 1.2109-3.1719 2.0312 0-0.39453 0.03906-0.79688 0.125-1.2031 0.75-0.80078 1.125-1.4258 1.125-1.875 0-0.34375-0.16406-0.51562-0.48438-0.51562-0.77344 0-1.293 0.67969-1.5625 2.0312-0.53125 0.66797-1.0898 1-1.6719 1-0.35547 0-0.58594-0.19531-0.6875-0.59375 0.80078-0.26953 1.5664-0.85938 2.2969-1.7656 0.73828-0.90625 1.1094-1.8125 1.1094-2.7188 0-0.85156-0.45312-1.2812-1.3594-1.2812-0.85547 0-1.625 0.52344-2.3125 1.5625-0.67969 1.043-1.0156 2.1094-1.0156 3.2031-0.58594 0-0.875-0.39844-0.875-1.2031 0-0.20703 0.03125-0.45312 0.09375-0.73438 0.070308-0.28126 0.10937-0.4375 0.10937-0.46876 0-0.23828-0.10938-0.35938-0.32812-0.35938-0.66797 0-0.98438 0.57422-0.95312 1.7188 0.019531 1.3359 0.6875 2.0586 2 2.1719 0.20703 0.98047 0.76562 1.4688 1.6719 1.4688 0.66406 0 1.2031-0.1875 1.6094-0.5625-0.03125 0.1875-0.07422 0.44531-0.125 0.76562-1.1797 0.61719-1.9531 1.0312-2.3281 1.25-0.74219 0.44922-1.3672 0.90234-1.875 1.3594-0.96094 0.875-1.4375 1.8203-1.4375 2.8281 0 0.64844 0.19531 1.1992 0.59375 1.6562 0.40625 0.44922 0.97656 0.67188 1.7188 0.67188 1.8438 0 3.1484-1.1719 3.9219-3.5156 0.23828-0.72656 0.41406-1.9414 0.53125-3.6406 1.332-0.75 2.5547-1.5234 3.6719-2.3281 0.13281 0.21094 0.26953 0.37109 0.40625 0.48438-1.8984 0.98047-2.8438 2.5117-2.8438 4.5938 0 1.1484 0.34766 2.1367 1.0469 2.9688 0.76953 0.96094 1.8047 1.4375 3.1094 1.4375 1.0938 0 2.0039-0.37891 2.7344-1.1406 0.73828-0.75781 1.1094-1.6094 1.1094-2.5469zm-2.9531-10.078c0 0.58594-0.61719 1.4141-1.8438 2.4844 0-0.78125 0.17578-1.4609 0.53125-2.0469 0.36328-0.58203 0.70703-0.875 1.0312-0.875 0.23828 0 0.33203 0.14844 0.28125 0.4375zm-7.0938-0.15625c0 0.48047-0.23047 1.0547-0.6875 1.7188-0.44922 0.66797-0.99219 1.1719-1.625 1.5156 0-0.66406 0.23828-1.4141 0.71875-2.25 0.47656-0.84375 0.92188-1.2656 1.3281-1.2656 0.17578 0 0.26562 0.09375 0.26562 0.28125zm-0.46875 7.4844c-0.1875 1.3555-0.53906 2.5117-1.0469 3.4688-0.61719 1.1562-1.3242 1.7344-2.125 1.7344-0.60547 0-0.90625-0.34766-0.90625-1.0469 0-1.4375 1.3594-2.8203 4.0781-4.1562z"/>
  </g>
  <g transform="matrix(1.3333 0 0 1.3333 544.35 117.87)">
   <path d="m9.25-6.9688h-2.0938c0.070312-0.28906 0.10938-0.5625 0.10938-0.8125 0-0.375-0.09375-0.62891-0.28125-0.76562-0.17969-0.13281-0.41797-0.20312-0.71875-0.20312-0.61719 0-1.1016 0.38672-1.4531 1.1562-0.16797 0.36719-0.33594 0.95312-0.5 1.7656l-0.39062 1.7344c-0.125 0.63672-0.1875 1.1406-0.1875 1.5156 0 0.82422 0.36719 1.2344 1.1094 1.2344 0.17578 0 0.375-0.015625 0.59375-0.046875 0.22656-0.03125 0.42188-0.085937 0.57812-0.17188l0.45312-2.2031h-1.1875l0.34375-1.5781h3.25l-1.0781 5.125c-0.49219 0.085938-0.87109 0.14062-1.1406 0.17188-0.83594 0.125-1.4336 0.1875-1.7969 0.1875-1.1055 0-1.8984-0.14844-2.375-0.45312-0.59375-0.36328-0.89062-1.0352-0.89062-2.0156 0-0.5 0.066406-1.0391 0.20312-1.625l0.53125-2.5c0.28125-1.3828 0.86719-2.3945 1.7656-3.0312 0.70703-0.5 1.5547-0.75 2.5469-0.75 1.0391 0 1.7852 0.25 2.2344 0.75 0.34375 0.375 0.51562 0.875 0.51562 1.5 0 0.1875-0.015625 0.35938-0.046875 0.51562-0.03125 0.14844-0.0625 0.3125-0.09375 0.5z"/>
  </g>
  <g transform="matrix(1.3333 0 0 1.3333 555.76 117.87)">
   <path d="m6.5469 0h-5.6875l2.1406-10.094h5.5156l-0.32812 1.5625h-3.3906l-0.53125 2.4688h3.1562l-0.32812 1.5625h-3.1719l-0.60938 2.9375h3.5625z"/>
  </g>
  <g transform="matrix(1.3333 0 0 1.3333 569.26 117.87)">
   <path d="m8.0625-3.3906c-0.10547 0.55469-0.19922 0.94922-0.28125 1.1875-0.24219 0.65625-0.60156 1.1797-1.0781 1.5625-0.65625 0.52344-1.4961 0.78125-2.5156 0.78125-0.99219 0-1.7188-0.25391-2.1875-0.76562-0.39844-0.42578-0.59375-1.0156-0.59375-1.7656 0-0.3125 0.039062-0.64453 0.125-1l0.65625-3.0312c0.26953-1.3008 0.75781-2.2578 1.4688-2.875 0.70703-0.625 1.6133-0.9375 2.7188-0.9375 0.91406 0 1.5781 0.19531 1.9844 0.57812 0.35156 0.34375 0.53125 0.83984 0.53125 1.4844 0 0.17969-0.015625 0.38281-0.046875 0.60938-0.023438 0.21875-0.058594 0.44531-0.10938 0.67188h-2.0781c0.070312-0.35156 0.10938-0.65625 0.10938-0.90625 0-0.28906-0.0625-0.51562-0.1875-0.67188-0.11719-0.15625-0.3125-0.23438-0.59375-0.23438-0.46094 0-0.84375 0.27734-1.1562 0.82812-0.24219 0.40625-0.43359 0.96875-0.57812 1.6875l-0.59375 2.8281c-0.0625 0.24219-0.09375 0.49609-0.09375 0.76562 0 0.35547 0.066406 0.64844 0.20312 0.875 0.13281 0.21875 0.35938 0.32812 0.67188 0.32812 0.45703 0 0.82812-0.23438 1.1094-0.70312 0.20703-0.33203 0.36328-0.76562 0.46875-1.2969z"/>
  </g>
  <g transform="matrix(1.3333 0 0 1.3333 579.62 117.87)">
   <path d="m6.25 0h-1.7812l0.09375-0.95312c-0.23047 0.34375-0.53125 0.61719-0.90625 0.8125-0.36719 0.1875-0.74219 0.28125-1.125 0.28125-0.4375 0-0.79297-0.12109-1.0625-0.35938-0.3125-0.28125-0.46875-0.67969-0.46875-1.2031 0-0.19531 0.03125-0.42188 0.09375-0.67188 0.20703-0.95703 0.69141-1.6172 1.4531-1.9844 0.5-0.25 1.1562-0.375 1.9688-0.375 0.125 0 0.23828 0.00781 0.34375 0.015625h0.32812c0.039062-0.16406 0.082031-0.36328 0.125-0.59375 0.050781-0.22656 0.078125-0.41406 0.078125-0.5625 0-0.33203-0.19922-0.5-0.59375-0.5-0.375 0-0.65234 0.13281-0.82812 0.39062-0.10547 0.14844-0.1875 0.38281-0.25 0.70312h-1.8281c0.125-0.61328 0.35156-1.082 0.6875-1.4062 0.51953-0.51953 1.3125-0.78125 2.375-0.78125 0.70703 0 1.2422 0.10547 1.6094 0.3125 0.44531 0.25 0.67188 0.67969 0.67188 1.2812 0 0.09375-0.00781 0.19922-0.015625 0.3125-0.011719 0.10547-0.03125 0.21875-0.0625 0.34375l-0.70312 3.2969zm-1.5156-2.125 0.26562-1.2656c-0.64844 0-1.0586 0.042969-1.2344 0.125-0.35547 0.14844-0.60156 0.50781-0.73438 1.0781-0.03125 0.1875-0.046875 0.35938-0.046875 0.51562 0 0.24219 0.046875 0.40625 0.14062 0.5 0.10156 0.085937 0.25391 0.125 0.45312 0.125 0.28125 0 0.53906-0.14062 0.78125-0.42188 0.19531-0.21875 0.32031-0.4375 0.375-0.65625z"/>
  </g>
  <g transform="matrix(1.3333 0 0 1.3333 588.94 117.87)">
   <path d="m7.2812-2.875c-0.23047 1.0938-0.59375 1.8906-1.0938 2.3906-0.41797 0.41797-0.92188 0.625-1.5156 0.625-0.35547 0-0.67188-0.089844-0.95312-0.26562-0.27344-0.17578-0.42188-0.375-0.45312-0.59375l-0.76562 3.5156h-2l2.0938-9.8438h1.9062l-0.15625 0.75c0.1875-0.25 0.42578-0.45312 0.71875-0.60938 0.33203-0.1875 0.6875-0.28125 1.0625-0.28125 0.5 0 0.88281 0.13672 1.1562 0.40625 0.28125 0.26172 0.42188 0.69922 0.42188 1.3125 0 0.40625-0.054687 0.85156-0.15625 1.3281zm-1.7812-0.60938c0.10156-0.5 0.15625-0.76562 0.15625-0.79688 0.070312-0.35156 0.10938-0.64453 0.10938-0.875 0-0.26953-0.046875-0.48438-0.14062-0.64062-0.085938-0.15625-0.24219-0.23438-0.46875-0.23438-0.3125 0-0.57812 0.17969-0.79688 0.53125-0.17969 0.3125-0.375 0.98438-0.59375 2.0156-0.13672 0.65625-0.21484 1.043-0.23438 1.1562-0.011719 0.10547-0.015625 0.26172-0.015625 0.46875 0 0.26172 0.046875 0.46484 0.14062 0.60938 0.09375 0.13672 0.25 0.20312 0.46875 0.20312 0.45703 0 0.80469-0.37891 1.0469-1.1406 0.082031-0.26953 0.19141-0.70312 0.32812-1.2969z"/>
  </g>
  <g transform="matrix(1.3333 0 0 1.3333 598.29 117.87)">
   <path d="m4.7812-8.625h-2l0.34375-1.6094h2zm-1.8281 8.625h-2l1.5-7.0469h2z"/>
  </g>
  <g transform="matrix(1.3333 0 0 1.3333 603.47 117.87)">
   <path d="m5.0938-5.75h-1.1094l-0.78125 3.6562c-0.042969 0.17969-0.0625 0.33594-0.0625 0.46875 0 0.33594 0.1875 0.5 0.5625 0.5 0.0625 0 0.12891-0.00391 0.20312-0.015625 0.070312-0.00781 0.12891-0.015625 0.17188-0.015625l-0.25 1.2031c-0.13672 0.019531-0.28906 0.039062-0.45312 0.0625-0.16797 0.019531-0.35156 0.03125-0.54688 0.03125-0.49219 0-0.87109-0.074219-1.1406-0.21875-0.36719-0.20703-0.54688-0.55469-0.54688-1.0469v-0.28125c0.03125-0.10156 0.050781-0.17578 0.0625-0.21875l0.875-4.125h-0.82812l0.26562-1.25h0.84375l0.23438-1.0781 2.0625-0.79688-0.39062 1.875h1.0938z"/>
  </g>
  <g transform="matrix(1.3333 0 0 1.3333 608.68 117.87)">
   <path d="m6.25 0h-1.7812l0.09375-0.95312c-0.23047 0.34375-0.53125 0.61719-0.90625 0.8125-0.36719 0.1875-0.74219 0.28125-1.125 0.28125-0.4375 0-0.79297-0.12109-1.0625-0.35938-0.3125-0.28125-0.46875-0.67969-0.46875-1.2031 0-0.19531 0.03125-0.42188 0.09375-0.67188 0.20703-0.95703 0.69141-1.6172 1.4531-1.9844 0.5-0.25 1.1562-0.375 1.9688-0.375 0.125 0 0.23828 0.00781 0.34375 0.015625h0.32812c0.039062-0.16406 0.082031-0.36328 0.125-0.59375 0.050781-0.22656 0.078125-0.41406 0.078125-0.5625 0-0.33203-0.19922-0.5-0.59375-0.5-0.375 0-0.65234 0.13281-0.82812 0.39062-0.10547 0.14844-0.1875 0.38281-0.25 0.70312h-1.8281c0.125-0.61328 0.35156-1.082 0.6875-1.4062 0.51953-0.51953 1.3125-0.78125 2.375-0.78125 0.70703 0 1.2422 0.10547 1.6094 0.3125 0.44531 0.25 0.67188 0.67969 0.67188 1.2812 0 0.09375-0.00781 0.19922-0.015625 0.3125-0.011719 0.10547-0.03125 0.21875-0.0625 0.34375l-0.70312 3.2969zm-1.5156-2.125 0.26562-1.2656c-0.64844 0-1.0586 0.042969-1.2344 0.125-0.35547 0.14844-0.60156 0.50781-0.73438 1.0781-0.03125 0.1875-0.046875 0.35938-0.046875 0.51562 0 0.24219 0.046875 0.40625 0.14062 0.5 0.10156 0.085937 0.25391 0.125 0.45312 0.125 0.28125 0 0.53906-0.14062 0.78125-0.42188 0.19531-0.21875 0.32031-0.4375 0.375-0.65625z"/>
  </g>
  <g transform="matrix(1.3333 0 0 1.3333 618 117.87)">
   <path d="m2.9531 0h-2l2.1406-10.094h2z"/>
  </g>
  <path d="m499.45 126.67 64.096-3.3e-4" fill="none" stroke="#cc3000" stroke-linecap="square" stroke-linejoin="round" stroke-miterlimit="10" stroke-width=".96"/>
 </g>
</svg>
