<svg xmlns="http://www.w3.org/2000/svg" xml:space="preserve" width="293.67081" height="32"><g fill="#0e2b58"><path d="m 0.484375,0 h 10.5 V -3.765625 H 8.09375 v 1.5 H 4.984375 V -5.0625 H 9.6875 V -7.609375 H 4.984375 v -2.5625 H 8.0625 V -8.75 h 2.90625 v -3.671875 H 0.484375 v 2.25 h 1.09375 v 7.90625 h -1.09375 z m 0,0 M -9.48151,0 h 6.671875 V -2.265625 H -4.45026 v -7.875 h 1.359375 v 2.28125 h 2.609375 v -4.5625 h -11.328125 v 4.5625 h 2.59375 v -2.28125 h 1.34375 v 7.875 H -9.48151 Z m 0,0 m -14.748125,0 h 4.796875 v -2.21875 h -1.015625 l 0.34375,-1.359375 h 3.640625 l 0.34375,1.359375 h -0.921875 V 0 h 5.078125 v -2.265625 h -0.703125 l -2.25,-7.90625 h 1.359375 v -2.25 h -9.015625 v 2.25 h 1.296875 l -2.25,7.90625 h -0.703125 z m 5.78125,-10.234375 h 0.34375 l 1.09375,4.4375 h -2.5625 z m 0,0 M -33.3855,0 h 6.671875 v -2.265625 h -1.640625 v -7.875 h 1.359375 v 2.28125 h 2.609375 v -4.5625 h -11.328125 v 4.5625 h 2.59375 v -2.28125 h 1.34375 v 7.875 H -33.3855 Z m 0,0 m -11.985575,0 h 6.765625 l 1.796875,-1.796875 v -4.25 l -1.53125,-1.53125 h -5.03125 l -0.28125,-0.28125 V -9.59375 l 0.359375,-0.375 h 2.65625 l 0.390625,0.390625 v 1.03125 h 3.40625 v -2.125 l -1.75,-1.75 H -45.2617 l -1.8125,1.796875 v 4.1875 l 1.53125,1.546875 h 5.046875 L -40.23045,-4.625 v 1.796875 l -0.359375,0.359375 H -43.3242 l -0.390625,-0.375 V -3.875 h -3.40625 v 2.125 z m 0,0 m -20.382748,0 h 5.234375 v -2.328125 h -1.171875 v -5.0625 L -57.738198,0 h 3.46875 v -10.109375 h 1.015625 v -2.3125 h -5.203125 v 2.3125 h 1.21875 V -5.125 l -3.984375,-7.296875 h -4.53125 v 2.3125 h 1.09375 v 7.78125 h -1.09375 z m 0,0 m -13.464004,0 h 5.234375 v -2.328125 h -1.171875 v -5.0625 L -71.202202,0 h 3.46875 v -10.109375 h 1.015625 v -2.3125 h -5.203125 v 2.3125 h 1.21875 V -5.125 l -3.984375,-7.296875 h -4.53125 v 2.3125 h 1.09375 v 7.78125 h -1.09375 z m 0,0 m -11.556,0 h 10.5 v -3.765625 h -2.890625 v 1.5 h -3.109375 V -5.0625 h 4.703125 v -2.546875 h -4.703125 v -2.5625 h 3.078125 V -8.75 h 2.90625 v -3.671875 h -10.484375 v 2.25 h 1.09375 v 7.90625 h -1.09375 z m 0,0 m -12.239993,0 h 6.07812 v -2.265625 h -1.578125 V -4.1875 h 5.0625 l 1.90625,-1.921875 v -4.40625 l -1.90625,-1.90625 h -9.562495 v 2.25 h 1.09375 v 7.90625 h -1.09375 z m 4.499995,-6.515625 v -3.578125 h 3.046875 l 0.5,0.5 v 2.578125 l -0.5,0.5 z m 0,0" transform="translate(519.44248,420.47896) matrix(1.3333333,0,0,1.3333333,-592.08832,-462.71632) matrix(1.9320755,0,0,1.9320755,-50.783557,-29.526311) translate(157.4982,44.099899)"/></g></svg>