<svg xmlns:xlink="http://www.w3.org/1999/xlink" xmlns="http://www.w3.org/2000/svg" viewBox="0 0 675.61 307.77" width="675.61"  height="307.77" >
  <defs>
    <style>.cls-1{fill:#1d1d1b;}.cls-2{fill:#1c1c1c;}.cls-3{fill:#eb5c99;}.cls-4{fill:#f7b887;}.cls-5{fill:#f2941f;}.cls-6{fill:#ed6e17;}.cls-7{fill:#faba00;}.cls-8{fill:#e8451c;}.cls-9{fill:#f28a08;}.cls-10{fill:#e53617;}.cls-11{fill:#e8540f;}.cls-12{fill:#e52612;}.cls-13{fill:#c44017;}.cls-14{fill:#c22417;}.cls-15{fill:#ffd600;}.cls-16{fill:#9e9e9c;}</style>
  </defs>
  <g id="Ebene_2" data-name="Ebene 2">
    <g id="Alle_Logos" data-name="Alle Logos">
      <path class="cls-1" d="M0,295.32,2.89,295l.57-.62L7.89,271l-.44-.62L4.6,270.1V268H25.92l-1.45,7.36H21.71L21.62,271l-.4-.48H13.51l-2.15,10.92h5.22l.78-.53,1.14-3.29H21L19.07,288H16.66l.09-3.42-.61-.57H11L9,294.39l.53.62,2.85.31v2.1H0Z"/>
      <path class="cls-1" d="M49.16,296.15a41.84,41.84,0,0,1-4.24,1.2,13.52,13.52,0,0,1-2.75.33,3.1,3.1,0,0,1-2.44-.85,4.36,4.36,0,0,1-.79-2.79A26.52,26.52,0,0,1,34.25,297a8.7,8.7,0,0,1-3.6.88,4.22,4.22,0,0,1-3.13-1.18,4.43,4.43,0,0,1-1.17-3.25,11.87,11.87,0,0,1,.27-2.46l2.1-11.4-3.51-.52v-1.54l7.59-1.45h1.67L32,289.18a14.14,14.14,0,0,0-.35,2.63,2.39,2.39,0,0,0,.59,1.75,2.12,2.12,0,0,0,1.6.62,5.81,5.81,0,0,0,2.3-.49A23.29,23.29,0,0,0,39.2,292l3-15.44L47.4,276l-2.54,13.59c-.12.53-.21,1-.26,1.32s-.11.64-.14.87-.05.43-.06.57a3.78,3.78,0,0,0,0,.49,2.22,2.22,0,0,0,.57,1.6,2,2,0,0,0,1.53.59,7.13,7.13,0,0,0,1.12-.11c.42-.07.94-.2,1.56-.37ZM35.1,266.9a2.63,2.63,0,0,1,2,.86,2.78,2.78,0,0,1,.83,2,2.85,2.85,0,0,1-2.83,2.81,2.65,2.65,0,0,1-2-.84,2.7,2.7,0,0,1-.83-2,2.77,2.77,0,0,1,.81-2A2.74,2.74,0,0,1,35.1,266.9Zm9,0a2.68,2.68,0,0,1,2,.83,2.78,2.78,0,0,1,.83,2,2.7,2.7,0,0,1-.83,2,2.65,2.65,0,0,1-2,.84,2.83,2.83,0,0,1-2.82-2.81,2.77,2.77,0,0,1,.82-2A2.73,2.73,0,0,1,44.13,266.9Z"/>
      <path class="cls-1" d="M54.59,279.57,51,279.05v-1.54l7.55-1.71H60l-1.23,5.88a22.15,22.15,0,0,1,4.08-4.43,5.89,5.89,0,0,1,3.55-1.4,3,3,0,0,1,2.22.92,3.12,3.12,0,0,1,.9,2.28,3.3,3.3,0,0,1-1.14,2.67,5.08,5.08,0,0,1-3.2,1L64,279.44a9.07,9.07,0,0,0-3.92,2.92,11.37,11.37,0,0,0-1.91,4.89l-1.67,10.17H51.13Z"/>
      <path class="cls-1" d="M92.83,295.36a9.36,9.36,0,0,1,3,2.1,3.83,3.83,0,0,1,.94,2.55,4.64,4.64,0,0,1-.9,2.72,8,8,0,0,1-2.48,2.21,13.69,13.69,0,0,1-3.7,1.49,17.93,17.93,0,0,1-4.54.55,11.83,11.83,0,0,1-6.51-1.58,4.84,4.84,0,0,1-2.44-4.25q0-4,6.41-6.45a2.12,2.12,0,0,1,0-.44,7.14,7.14,0,0,1,1.84-4.21c-3.33-1-5-2.91-5-5.83a7.41,7.41,0,0,1,.74-3.29,8.56,8.56,0,0,1,2-2.67,9.39,9.39,0,0,1,3.07-1.78,12.11,12.11,0,0,1,6.49-.34,16.2,16.2,0,0,1,2.83,1h6v2.24H96.16q.23.87.33,1.47a6.78,6.78,0,0,1,.11,1.2,7.32,7.32,0,0,1-.75,3.31A7.77,7.77,0,0,1,93.79,288a10.07,10.07,0,0,1-3.13,1.74,12.06,12.06,0,0,1-4,.63,3.77,3.77,0,0,0-.53,1.53,1,1,0,0,0,0,.31Zm-9.08.79a6.84,6.84,0,0,0-2.17,1.75,3.6,3.6,0,0,0-.63,2.15,4.27,4.27,0,0,0,1.6,3.44,6,6,0,0,0,4,1.34,6.11,6.11,0,0,0,3.55-1,2.86,2.86,0,0,0,1.45-2.43c0-1.11-.86-2.06-2.59-2.85Zm5.35-18.37a2.68,2.68,0,0,0-1.66.59,5.36,5.36,0,0,0-1.39,1.6,10.26,10.26,0,0,0-1,2.3,9.48,9.48,0,0,0-.37,2.65,4.45,4.45,0,0,0,.61,2.55,2,2,0,0,0,1.75.87,2.68,2.68,0,0,0,1.67-.59,5.56,5.56,0,0,0,1.4-1.58,9,9,0,0,0,1-2.26,9.31,9.31,0,0,0,.37-2.67C91.51,278.93,90.71,277.78,89.1,277.78Z"/>
      <path class="cls-1" d="M116.64,294.13a22,22,0,0,1-4.76,2.85,11.16,11.16,0,0,1-4.32.88,7.25,7.25,0,0,1-5.63-2.24,8.75,8.75,0,0,1-2-6.14,13.62,13.62,0,0,1,1-5.24,14,14,0,0,1,2.74-4.34,13.22,13.22,0,0,1,4-3,11.16,11.16,0,0,1,4.85-1.09,5.73,5.73,0,0,1,4,1.31,4.56,4.56,0,0,1,1.47,3.55,5.57,5.57,0,0,1-3,5c-2,1.2-4.79,1.8-8.42,1.8h-.61c-.15,0-.38,0-.7,0a4.78,4.78,0,0,0,0,.5v.51q0,6,4.52,6a8.31,8.31,0,0,0,3.18-.66,18.64,18.64,0,0,0,3.84-2.32Zm-11-8.51a14.3,14.3,0,0,0,3.22-.57,9.16,9.16,0,0,0,2.52-1.14,5.1,5.1,0,0,0,1.63-1.64,3.79,3.79,0,0,0,.57-2,2.3,2.3,0,0,0-.6-1.64,2,2,0,0,0-1.55-.64,4.18,4.18,0,0,0-3.31,1.93A16.61,16.61,0,0,0,105.59,285.62Z"/>
      <path class="cls-1" d="M124.23,296.06l-1-16.66-3.64-.53v-1.45l6.27-1.62h2l.93,16q1.31-2.44,2.36-4.47c.71-1.34,1.36-2.61,1.95-3.79s1.16-2.32,1.67-3.4l1.56-3.33,4.12-.35q.13,3.24.37,7.3c.16,2.7.38,5.88.64,9.53.9-1.22,1.68-2.3,2.32-3.22s1.2-1.75,1.67-2.5.87-1.43,1.2-2.06.65-1.28.95-2l-1.06-6.58a3.61,3.61,0,0,1,2.68-1.18,2.79,2.79,0,0,1,2.08.83,3,3,0,0,1,.81,2.19,9.11,9.11,0,0,1-.94,3.64,37.5,37.5,0,0,1-2.91,5.09c-.38.59-.74,1.1-1.08,1.56l-1.25,1.69c-.5.67-1.15,1.52-2,2.56s-1.86,2.41-3.18,4.1H137l-.92-15.13c-.67,1.32-1.32,2.56-1.93,3.73s-1.24,2.35-1.89,3.53-1.31,2.41-2,3.68-1.48,2.67-2.33,4.19h-4.12Z"/>
      <path class="cls-1" d="M165.44,275.85a9.86,9.86,0,0,1,3.6.63,7.78,7.78,0,0,1,4.56,4.67,10.73,10.73,0,0,1,.61,3.73,13.44,13.44,0,0,1-1,5.09,13.27,13.27,0,0,1-2.61,4.12,12,12,0,0,1-3.88,2.76,11.55,11.55,0,0,1-4.78,1,10.13,10.13,0,0,1-3.71-.64,7.6,7.6,0,0,1-2.78-1.82,8.46,8.46,0,0,1-1.78-2.85,10.44,10.44,0,0,1-.63-3.72,13.4,13.4,0,0,1,1-5.09,13.2,13.2,0,0,1,2.63-4.12,12.33,12.33,0,0,1,3.93-2.77A11.75,11.75,0,0,1,165.44,275.85Zm-.7,2.23a3.84,3.84,0,0,0-2.39.88,7.54,7.54,0,0,0-1.93,2.41,14.23,14.23,0,0,0-1.27,3.59,20.26,20.26,0,0,0-.46,4.45,9.18,9.18,0,0,0,.94,4.63,3.06,3.06,0,0,0,2.79,1.58,3.94,3.94,0,0,0,2.45-.86,7.32,7.32,0,0,0,2-2.35,14.43,14.43,0,0,0,1.29-3.53,19.11,19.11,0,0,0,.48-4.41Q168.6,278.08,164.74,278.08Zm-2.39-11.18a2.63,2.63,0,0,1,2,.86,2.78,2.78,0,0,1,.83,2,2.85,2.85,0,0,1-2.83,2.81,2.65,2.65,0,0,1-2-.84,2.7,2.7,0,0,1-.83-2,2.77,2.77,0,0,1,.81-2A2.74,2.74,0,0,1,162.35,266.9Zm9,0a2.67,2.67,0,0,1,2,.83,2.78,2.78,0,0,1,.83,2,2.7,2.7,0,0,1-.83,2,2.64,2.64,0,0,1-2,.84,2.83,2.83,0,0,1-2.83-2.81,2.77,2.77,0,0,1,.82-2A2.74,2.74,0,0,1,171.39,266.9Z"/>
      <path class="cls-1" d="M182.55,268.79l-3.82-.49v-1.44l7.76-1.71h2c-.26,1.08-.52,2.21-.77,3.4s-.53,2.56-.85,4.14l-1.49,7.41c1-.82,2-1.5,2.78-2a17.49,17.49,0,0,1,2.21-1.29,11,11,0,0,1,1.89-.71,7.62,7.62,0,0,1,1.76-.21,3.89,3.89,0,0,1,4.07,4.07,12.49,12.49,0,0,1-.13,1.65c-.09.66-.2,1.31-.35,1.95l-1.27,6.05a16.91,16.91,0,0,0-.48,3.2,2.38,2.38,0,0,0,.54,1.65,1.94,1.94,0,0,0,1.47.59,6.29,6.29,0,0,0,1.14-.11c.38-.07.91-.2,1.58-.37v1.62c-.79.29-1.5.53-2.15.72s-1.22.35-1.75.46-1,.21-1.47.27a12.48,12.48,0,0,1-1.38.08,3.63,3.63,0,0,1-2.52-.81,2.88,2.88,0,0,1-.9-2.26,7.3,7.3,0,0,1,.06-.94c.05-.31.14-.78.28-1.42l1.51-7.28c.11-.5.21-1,.28-1.58a11.24,11.24,0,0,0,.1-1.36,2.84,2.84,0,0,0-.54-1.82,1.81,1.81,0,0,0-1.47-.68,5.33,5.33,0,0,0-2.41.68,21.09,21.09,0,0,0-3.25,2.21l-2.67,15h-5.44Z"/>
      <path class="cls-1" d="M206.18,279.57l-3.64-.52v-1.54l7.72-1.71H212l-.88,4.34c1-.79,1.9-1.45,2.72-2a23.62,23.62,0,0,1,2.26-1.34,9.22,9.22,0,0,1,2-.75,8.18,8.18,0,0,1,1.81-.21,3.86,3.86,0,0,1,2.94,1.18,4.27,4.27,0,0,1,1.13,3.07,12.84,12.84,0,0,1-.12,1.56,16.09,16.09,0,0,1-.33,1.9l-1.34,6c-.18.76-.31,1.39-.38,1.89a8.15,8.15,0,0,0-.11,1.31,2.42,2.42,0,0,0,.52,1.65,1.91,1.91,0,0,0,1.49.59,6.6,6.6,0,0,0,1.16-.11c.4-.07.92-.2,1.56-.37v1.66a30.82,30.82,0,0,1-3.75,1.14,13.1,13.1,0,0,1-3,.35,3.69,3.69,0,0,1-2.56-.81,2.88,2.88,0,0,1-.9-2.26,8.92,8.92,0,0,1,.06-.94,12.79,12.79,0,0,1,.29-1.42l1.53-7.28a14.78,14.78,0,0,0,.29-1.58,11.52,11.52,0,0,0,.11-1.32,2.84,2.84,0,0,0-.55-1.86,1.85,1.85,0,0,0-1.51-.68,5.18,5.18,0,0,0-2.35.68,21.57,21.57,0,0,0-3.22,2.21l-2.54,15h-5.57Z"/>
      <path class="cls-1" d="M239.64,296.06c-1,.32-1.9.59-2.61.79s-1.35.37-1.89.5a10.81,10.81,0,0,1-1.42.27c-.41,0-.81.06-1.19.06a4.13,4.13,0,0,1-2.67-.81,2.69,2.69,0,0,1-1-2.21c0-.32,0-.64,0-.94a13.56,13.56,0,0,1,.27-1.47l4.34-23.46-3.64-.49v-1.44l7.5-1.71h1.93l-4.52,24.42c-.2.94-.34,1.62-.39,2.06a9.14,9.14,0,0,0-.09,1.23,2.2,2.2,0,0,0,.55,1.56,1.91,1.91,0,0,0,1.47.59l.59,0,.65-.09c.25,0,.54-.11.86-.2l1.23-.35Z"/>
      <path class="cls-1" d="M253.23,294.22V296l-2.43.81c-.69.22-1.31.39-1.87.52a10.65,10.65,0,0,1-1.56.27c-.49,0-1,.06-1.48.06q-3.45,0-3.45-3.33a12,12,0,0,1,.11-1.34c.08-.57.17-1.12.29-1.64l2.34-11.8-3.61-.52v-1.54l7.54-1.71H251l-2.76,14.82c-.06.33-.11.65-.16,1a7.47,7.47,0,0,0-.06.86c0,1.57.7,2.36,2.1,2.36a6.79,6.79,0,0,0,1.05-.08c.33-.06.89-.21,1.71-.44Zm-3.29-28.68a2.7,2.7,0,0,1,2,.79,2.84,2.84,0,0,1,.77,2.06,3.28,3.28,0,0,1-.94,2.37,3.16,3.16,0,0,1-2.35,1,2.9,2.9,0,0,1-2.08-.76,2.67,2.67,0,0,1-.81-2,3.3,3.3,0,0,1,3.37-3.38Z"/>
      <path class="cls-1" d="M271.25,293.69a19.7,19.7,0,0,1-4.67,3.12,10.76,10.76,0,0,1-4.49,1.05,7.84,7.84,0,0,1-3.09-.59,6.73,6.73,0,0,1-2.37-1.71,7.72,7.72,0,0,1-1.51-2.68,10.86,10.86,0,0,1-.53-3.48,14,14,0,0,1,1-5.24,13.43,13.43,0,0,1,2.69-4.32,12.93,12.93,0,0,1,4-2.92,11.25,11.25,0,0,1,4.87-1.07,5.66,5.66,0,0,1,3.46.94,3,3,0,0,1,1.28,2.52q0,2.9-3.6,3.25l-2.85-4.48a5.55,5.55,0,0,0-2.13,1.32,8.89,8.89,0,0,0-1.64,2.26,11.58,11.58,0,0,0-1.07,3,16.77,16.77,0,0,0-.38,3.6,8,8,0,0,0,1.1,4.54,3.5,3.5,0,0,0,3.07,1.6,7.27,7.27,0,0,0,3.18-.75,18.12,18.12,0,0,0,3.7-2.58Z"/>
      <path class="cls-1" d="M279.23,268.79l-3.81-.49v-1.44l7.76-1.71h2c-.27,1.08-.52,2.21-.77,3.4s-.53,2.56-.86,4.14l-1.49,7.41c1.06-.82,2-1.5,2.79-2a17.49,17.49,0,0,1,2.21-1.29,10.37,10.37,0,0,1,1.89-.71,7.56,7.56,0,0,1,1.76-.21,4,4,0,0,1,2.94,1.14,4,4,0,0,1,1.13,2.93,12.49,12.49,0,0,1-.13,1.65c-.09.66-.21,1.31-.35,1.95l-1.27,6.05a16.32,16.32,0,0,0-.49,3.2,2.38,2.38,0,0,0,.55,1.65,1.94,1.94,0,0,0,1.47.59,6.29,6.29,0,0,0,1.14-.11c.38-.07.91-.2,1.58-.37v1.62c-.79.29-1.51.53-2.15.72s-1.23.35-1.75.46-1,.21-1.47.27a12.77,12.77,0,0,1-1.38.08,3.64,3.64,0,0,1-2.53-.81,2.91,2.91,0,0,1-.89-2.26,7.3,7.3,0,0,1,.06-.94c0-.31.14-.78.28-1.42L289,285c.11-.5.2-1,.27-1.58a9.75,9.75,0,0,0,.11-1.36,2.78,2.78,0,0,0-.55-1.82,1.78,1.78,0,0,0-1.46-.68,5.37,5.37,0,0,0-2.42.68,21.08,21.08,0,0,0-3.24,2.21l-2.68,15h-5.43Z"/>
      <path class="cls-1" d="M315.63,263.92h3.81v43.85h-3.81Z"/>
      <path class="cls-1" d="M360.53,296.15c-.88.32-1.64.58-2.28.77s-1.22.34-1.73.46-1,.19-1.43.24-.88.06-1.31.06q-3.16,0-3.16-3.42c-2.49,2.4-4.85,3.6-7.1,3.6a5.4,5.4,0,0,1-4.54-2.15,9.42,9.42,0,0,1-1.65-5.88,15.81,15.81,0,0,1,.95-5.5,13.74,13.74,0,0,1,2.6-4.45,12.38,12.38,0,0,1,3.91-3,10.9,10.9,0,0,1,4.82-1.07,13.06,13.06,0,0,1,2.37.21,22.07,22.07,0,0,1,2.76.79l1.62-1.05H359c-.2.65-.42,1.5-.66,2.57s-.51,2.43-.83,4.1l-1.27,7.1a19.32,19.32,0,0,0-.4,3.07q0,2.37,2.07,2.37a6.26,6.26,0,0,0,1.07-.11c.39-.07.93-.2,1.6-.37Zm-7.81-15.61L351,277.91a6.41,6.41,0,0,0-2.5.35,6.25,6.25,0,0,0-2,1.27,10.09,10.09,0,0,0-2.58,4,15.66,15.66,0,0,0-.92,5.49q0,5.13,3.28,5.13a4.79,4.79,0,0,0,2-.44,15.84,15.84,0,0,0,2.5-1.58Z"/>
      <path class="cls-1" d="M386.36,296.15a41.84,41.84,0,0,1-4.24,1.2,13.52,13.52,0,0,1-2.75.33,3.08,3.08,0,0,1-2.43-.85,4.3,4.3,0,0,1-.8-2.79,26.52,26.52,0,0,1-4.69,2.94,8.7,8.7,0,0,1-3.6.88,4.22,4.22,0,0,1-3.13-1.18,4.43,4.43,0,0,1-1.16-3.25,11.84,11.84,0,0,1,.26-2.46l2.1-11.4-3.5-.52v-1.54l7.58-1.45h1.67l-2.5,13.12a14.14,14.14,0,0,0-.35,2.63,2.39,2.39,0,0,0,.59,1.75,2.12,2.12,0,0,0,1.6.62,5.81,5.81,0,0,0,2.3-.49A22.69,22.69,0,0,0,376.4,292l3-15.44,5.23-.61-2.54,13.59c-.12.53-.2,1-.26,1.32s-.11.64-.13.87-.06.43-.07.57a3.78,3.78,0,0,0,0,.49,2.22,2.22,0,0,0,.57,1.6,2,2,0,0,0,1.53.59,7,7,0,0,0,1.12-.11c.42-.07.94-.2,1.56-.37Z"/>
      <path class="cls-1" d="M386.53,303.69a9.38,9.38,0,0,0,.94-1.69,14.73,14.73,0,0,0,.77-2.28c.24-.89.46-2,.68-3.22s.46-2.76.73-4.52l1.71-12.41q1-7.14,4.31-10.81a11.29,11.29,0,0,1,8.8-3.66,8,8,0,0,1,5.41,1.71,5.87,5.87,0,0,1,2,4.7,13.57,13.57,0,0,1-.24,2.47c-.16.87-.46,2-.9,3.53h-.4a6,6,0,0,0-.68,0h-.37a6.06,6.06,0,0,0-3.38.79,2.52,2.52,0,0,0-1.18,2.23,3.15,3.15,0,0,0,.11.86,2.54,2.54,0,0,0,.39.77,5.27,5.27,0,0,0,.82.85c.35.31.8.68,1.36,1.12l1.57,1.25.95.75a5.54,5.54,0,0,1,.59.52l.48.55a5.21,5.21,0,0,1,1.18,3.42,6.58,6.58,0,0,1-.63,2.89,7.24,7.24,0,0,1-1.78,2.31,8.35,8.35,0,0,1-2.69,1.53,10.06,10.06,0,0,1-3.4.55,10.29,10.29,0,0,1-2.68-.34,7.25,7.25,0,0,1-2.12-.95,4.68,4.68,0,0,1-1.41-1.43,3.47,3.47,0,0,1-.5-1.8,2.71,2.71,0,0,1,.77-2,2.63,2.63,0,0,1,2-.79,2.59,2.59,0,0,1,1.12.24,4.79,4.79,0,0,1,1.16.85l-.7,2.94a4.2,4.2,0,0,0,1.31.83,4.09,4.09,0,0,0,1.41.22,3.64,3.64,0,0,0,2.48-.83,2.83,2.83,0,0,0,.94-2.2,3.68,3.68,0,0,0-.13-1,2.75,2.75,0,0,0-.49-.92,5.18,5.18,0,0,0-1-1c-.45-.35-1-.78-1.73-1.27-.87-.62-1.61-1.18-2.19-1.67a9,9,0,0,1-1.38-1.41,4,4,0,0,1-.7-1.32,5,5,0,0,1-.2-1.45,5.54,5.54,0,0,1,1.71-4.15,8.9,8.9,0,0,1,4.78-2.17,27.33,27.33,0,0,0,.81-3.07,12.4,12.4,0,0,0,.2-2.16q0-3.42-3.16-3.42a5.39,5.39,0,0,0-4.69,2.8c-1.2,1.88-2.09,4.77-2.68,8.69l-1.66,11.4c-.21,1.4-.43,2.66-.66,3.77a21.26,21.26,0,0,1-.86,3,18.36,18.36,0,0,1-1.11,2.52,15.37,15.37,0,0,1-1.45,2.19,14.33,14.33,0,0,1-3.75,3.51,7.35,7.35,0,0,1-3.88,1.27,3.13,3.13,0,0,1-2.21-.83,2.71,2.71,0,0,1-.9-2.06,2.86,2.86,0,0,1,1.75-2.63Z"/>
      <path class="cls-1" d="M431.52,294.13a22,22,0,0,1-4.76,2.85,11.08,11.08,0,0,1-4.31.88,7.26,7.26,0,0,1-5.64-2.24,8.75,8.75,0,0,1-2-6.14,13.81,13.81,0,0,1,1-5.24,14.17,14.17,0,0,1,2.74-4.34,13.27,13.27,0,0,1,4-3,11.12,11.12,0,0,1,4.84-1.09,5.71,5.71,0,0,1,4,1.31,4.53,4.53,0,0,1,1.47,3.55,5.58,5.58,0,0,1-3,5q-3,1.8-8.42,1.8h-.62c-.14,0-.38,0-.7,0a4.13,4.13,0,0,0,0,.5v.51q0,6,4.51,6a8.24,8.24,0,0,0,3.18-.66,18.64,18.64,0,0,0,3.84-2.32Zm-11-8.51a14.39,14.39,0,0,0,3.23-.57,9.29,9.29,0,0,0,2.52-1.14,5.16,5.16,0,0,0,1.62-1.64,3.79,3.79,0,0,0,.57-2,2.34,2.34,0,0,0-.59-1.64,2.06,2.06,0,0,0-1.56-.64,4.18,4.18,0,0,0-3.31,1.93A16.61,16.61,0,0,0,420.47,285.62Z"/>
      <path class="cls-1" d="M438.62,279.57l-3.63-.52v-1.54l7.54-1.71h1.53l-1.23,5.88a22.76,22.76,0,0,1,4.08-4.43,5.91,5.91,0,0,1,3.55-1.4,3,3,0,0,1,2.22.92,3.12,3.12,0,0,1,.9,2.28,3.3,3.3,0,0,1-1.14,2.67,5.08,5.08,0,0,1-3.2,1l-1.19-3.33a9.07,9.07,0,0,0-3.92,2.92,11.37,11.37,0,0,0-1.91,4.89l-1.67,10.17h-5.39Z"/>
      <path class="cls-1" d="M468.49,295.36a9.36,9.36,0,0,1,3.05,2.1,3.83,3.83,0,0,1,.94,2.55,4.64,4.64,0,0,1-.9,2.72,8.13,8.13,0,0,1-2.48,2.21,13.82,13.82,0,0,1-3.7,1.49,18,18,0,0,1-4.54.55,11.83,11.83,0,0,1-6.51-1.58,4.84,4.84,0,0,1-2.44-4.25q0-4,6.4-6.45a3.13,3.13,0,0,1,0-.44,7.07,7.07,0,0,1,1.84-4.21c-3.33-1-5-2.91-5-5.83a7.42,7.42,0,0,1,.75-3.29,8.56,8.56,0,0,1,2-2.67,9.39,9.39,0,0,1,3.07-1.78,12.11,12.11,0,0,1,6.49-.34,16.2,16.2,0,0,1,2.83,1h6v2.24h-4.47q.23.87.33,1.47a6.78,6.78,0,0,1,.11,1.2,7.32,7.32,0,0,1-.75,3.31,7.77,7.77,0,0,1-2.06,2.61,10.07,10.07,0,0,1-3.13,1.74,12.11,12.11,0,0,1-4,.63,3.77,3.77,0,0,0-.53,1.53,1,1,0,0,0,.05.31Zm-9.08.79a6.84,6.84,0,0,0-2.17,1.75,3.6,3.6,0,0,0-.64,2.15,4.3,4.3,0,0,0,1.6,3.44,6.84,6.84,0,0,0,7.61.35,2.86,2.86,0,0,0,1.45-2.43c0-1.11-.86-2.06-2.59-2.85Zm5.35-18.37a2.7,2.7,0,0,0-1.67.59,5.48,5.48,0,0,0-1.38,1.6,10.26,10.26,0,0,0-1,2.3,9.48,9.48,0,0,0-.37,2.65,4.45,4.45,0,0,0,.61,2.55,2,2,0,0,0,1.75.87,2.7,2.7,0,0,0,1.67-.59,5.56,5.56,0,0,0,1.4-1.58,9,9,0,0,0,1-2.26,9.31,9.31,0,0,0,.37-2.67C467.17,278.93,466.37,277.78,464.76,277.78Z"/>
      <path class="cls-1" d="M492.25,294.13A22.16,22.16,0,0,1,487.5,297a11.16,11.16,0,0,1-4.32.88,7.26,7.26,0,0,1-5.64-2.24,8.75,8.75,0,0,1-2-6.14,13.81,13.81,0,0,1,1-5.24,14.17,14.17,0,0,1,2.74-4.34,13.27,13.27,0,0,1,4-3,11.12,11.12,0,0,1,4.84-1.09,5.71,5.71,0,0,1,4,1.31,4.53,4.53,0,0,1,1.47,3.55,5.56,5.56,0,0,1-3,5q-3,1.8-8.42,1.8h-.62c-.14,0-.38,0-.7,0a4.13,4.13,0,0,0,0,.5v.51c0,4,1.5,6,4.52,6a8.23,8.23,0,0,0,3.17-.66,18.64,18.64,0,0,0,3.84-2.32Zm-11.05-8.51a14.39,14.39,0,0,0,3.23-.57,9.16,9.16,0,0,0,2.52-1.14,5.16,5.16,0,0,0,1.62-1.64,3.79,3.79,0,0,0,.57-2,2.34,2.34,0,0,0-.59-1.64A2.06,2.06,0,0,0,487,278a4.18,4.18,0,0,0-3.31,1.93A16.81,16.81,0,0,0,481.2,285.62Z"/>
      <path class="cls-1" d="M499.84,296.06l-1-16.66-3.64-.53v-1.45l6.27-1.62h2l.92,16q1.32-2.44,2.37-4.47c.7-1.34,1.35-2.61,2-3.79s1.15-2.32,1.67-3.4,1-2.19,1.55-3.33l4.12-.35q.13,3.24.38,7.3t.63,9.53c.91-1.22,1.68-2.3,2.33-3.22s1.19-1.75,1.66-2.5.87-1.43,1.21-2.06.65-1.28.94-2l-1.05-6.58a3.59,3.59,0,0,1,2.67-1.18,2.81,2.81,0,0,1,2.09.83,3,3,0,0,1,.81,2.19,9.28,9.28,0,0,1-.94,3.64,37.72,37.72,0,0,1-2.92,5.09c-.38.59-.74,1.1-1.08,1.56l-1.25,1.69c-.49.67-1.14,1.52-1.95,2.56l-3.17,4.1h-3.78l-.92-15.13c-.67,1.32-1.31,2.56-1.93,3.73s-1.24,2.35-1.88,3.53l-2,3.68-2.32,4.19h-4.12Z"/>
      <path class="cls-1" d="M541.06,275.85a9.84,9.84,0,0,1,3.59.63,7.71,7.71,0,0,1,4.56,4.67,10.73,10.73,0,0,1,.62,3.73,13.44,13.44,0,0,1-3.58,9.21,11.84,11.84,0,0,1-3.88,2.76,11.51,11.51,0,0,1-4.78,1,10.08,10.08,0,0,1-3.7-.64,7.55,7.55,0,0,1-2.79-1.82,8.28,8.28,0,0,1-1.77-2.85,10.23,10.23,0,0,1-.64-3.72,13.22,13.22,0,0,1,1-5.09,13,13,0,0,1,2.63-4.12,12.4,12.4,0,0,1,3.92-2.77A11.8,11.8,0,0,1,541.06,275.85Zm-.7,2.23A3.82,3.82,0,0,0,538,279a7.41,7.41,0,0,0-1.93,2.41,13.85,13.85,0,0,0-1.27,3.59,20.26,20.26,0,0,0-.46,4.45,9.18,9.18,0,0,0,.94,4.63,3,3,0,0,0,2.78,1.58,4,4,0,0,0,2.46-.86,7.17,7.17,0,0,0,2-2.35,14.43,14.43,0,0,0,1.29-3.53,19.09,19.09,0,0,0,.49-4.41Q544.22,278.08,540.36,278.08ZM538,266.9a2.63,2.63,0,0,1,1.95.86,2.74,2.74,0,0,1,.83,2,2.66,2.66,0,0,1-.83,2,2.8,2.8,0,0,1-4.78-2,2.8,2.8,0,0,1,.8-2A2.74,2.74,0,0,1,538,266.9Zm9,0a2.69,2.69,0,0,1,2,.83,2.77,2.77,0,0,1,.82,2,2.81,2.81,0,0,1-5.61,0,2.78,2.78,0,0,1,.83-2A2.73,2.73,0,0,1,547,266.9Z"/>
      <path class="cls-1" d="M558.16,268.79l-3.82-.49v-1.44l7.77-1.71h2c-.26,1.08-.52,2.21-.76,3.4s-.54,2.56-.86,4.14L561,280.1c1-.82,2-1.5,2.78-2a18.27,18.27,0,0,1,2.22-1.29,10.37,10.37,0,0,1,1.89-.71,7.5,7.5,0,0,1,1.76-.21A4,4,0,0,1,572.6,277a4,4,0,0,1,1.13,2.93,12.74,12.74,0,0,1-.14,1.65,18.08,18.08,0,0,1-.35,1.95L572,289.57a16.91,16.91,0,0,0-.48,3.2,2.33,2.33,0,0,0,.55,1.65,1.91,1.91,0,0,0,1.47.59,6.29,6.29,0,0,0,1.14-.11c.38-.07.9-.2,1.58-.37v1.62c-.79.29-1.51.53-2.15.72s-1.23.35-1.76.46-1,.21-1.47.27a12.48,12.48,0,0,1-1.38.08,3.63,3.63,0,0,1-2.52-.81,2.88,2.88,0,0,1-.9-2.26,5.86,5.86,0,0,1,.07-.94c0-.31.13-.78.28-1.42l1.5-7.28a14.81,14.81,0,0,0,.28-1.58,11.59,11.59,0,0,0,.11-1.36,2.78,2.78,0,0,0-.55-1.82,1.79,1.79,0,0,0-1.47-.68,5.37,5.37,0,0,0-2.41.68,20.61,20.61,0,0,0-3.24,2.21l-2.68,15H552.5Z"/>
      <path class="cls-1" d="M581.79,279.57l-3.64-.52v-1.54l7.72-1.71h1.71l-.87,4.34c1-.79,1.9-1.45,2.71-2a24.92,24.92,0,0,1,2.26-1.34,9.08,9.08,0,0,1,2-.75,8,8,0,0,1,1.8-.21,3.86,3.86,0,0,1,2.94,1.18,4.27,4.27,0,0,1,1.13,3.07,14.84,14.84,0,0,1-.11,1.56,18.51,18.51,0,0,1-.34,1.9l-1.34,6c-.18.76-.3,1.39-.38,1.89a9.48,9.48,0,0,0-.11,1.31,2.42,2.42,0,0,0,.53,1.65,1.89,1.89,0,0,0,1.49.59,6.69,6.69,0,0,0,1.16-.11c.39-.07.91-.2,1.56-.37v1.66a31.92,31.92,0,0,1-3.75,1.14,13.16,13.16,0,0,1-3,.35,3.7,3.7,0,0,1-2.57-.81,2.88,2.88,0,0,1-.9-2.26,7.05,7.05,0,0,1,.07-.94,12.39,12.39,0,0,1,.28-1.42l1.54-7.28c.11-.5.21-1,.28-1.58a9.6,9.6,0,0,0,.11-1.32,2.84,2.84,0,0,0-.55-1.86,1.84,1.84,0,0,0-1.51-.68,5.14,5.14,0,0,0-2.34.68,21.57,21.57,0,0,0-3.23,2.21l-2.54,15h-5.57Z"/>
      <path class="cls-1" d="M615.25,296.06c-1,.32-1.89.59-2.61.79s-1.34.37-1.88.5a10.93,10.93,0,0,1-1.43.27c-.41,0-.8.06-1.18.06a4.16,4.16,0,0,1-2.68-.81,2.69,2.69,0,0,1-1-2.21c0-.32,0-.64,0-.94a12.93,12.93,0,0,1,.26-1.47l4.34-23.46-3.64-.49v-1.44l7.5-1.71h1.93l-4.52,24.42c-.2.94-.33,1.62-.39,2.06a9.14,9.14,0,0,0-.09,1.23,2.2,2.2,0,0,0,.55,1.56,1.92,1.92,0,0,0,1.47.59l.59,0,.66-.09c.25,0,.53-.11.85-.2l1.23-.35Z"/>
      <path class="cls-1" d="M628.84,294.22V296q-1.4.48-2.43.81c-.69.22-1.31.39-1.86.52a11.13,11.13,0,0,1-1.56.27c-.49,0-1,.06-1.49.06q-3.43,0-3.44-3.33a10,10,0,0,1,.11-1.34,16,16,0,0,1,.29-1.64l2.34-11.8-3.62-.52v-1.54l7.54-1.71h1.93l-2.76,14.82c-.06.33-.11.65-.15,1a5.91,5.91,0,0,0-.07.86c0,1.57.7,2.36,2.11,2.36a6.79,6.79,0,0,0,1.05-.08c.32-.06.89-.21,1.71-.44Zm-3.28-28.68a2.73,2.73,0,0,1,2,.79,2.83,2.83,0,0,1,.76,2.06,3.24,3.24,0,0,1-.94,2.37,3.16,3.16,0,0,1-2.35,1A2.91,2.91,0,0,1,623,271a2.67,2.67,0,0,1-.81-2,3.3,3.3,0,0,1,3.38-3.38Z"/>
      <path class="cls-1" d="M646.87,293.69a19.9,19.9,0,0,1-4.67,3.12,10.84,10.84,0,0,1-4.5,1.05,7.84,7.84,0,0,1-3.09-.59,6.73,6.73,0,0,1-2.37-1.71,7.88,7.88,0,0,1-1.51-2.68,10.86,10.86,0,0,1-.53-3.48,14,14,0,0,1,1-5.24,13.63,13.63,0,0,1,2.7-4.32,12.93,12.93,0,0,1,4-2.92,11.21,11.21,0,0,1,4.87-1.07,5.68,5.68,0,0,1,3.46.94,3,3,0,0,1,1.27,2.52q0,2.9-3.59,3.25L641,278.08a5.55,5.55,0,0,0-2.13,1.32,8.91,8.91,0,0,0-1.65,2.26,12.35,12.35,0,0,0-1.07,3,16.77,16.77,0,0,0-.37,3.6,8,8,0,0,0,1.09,4.54,3.51,3.51,0,0,0,3.07,1.6,7.27,7.27,0,0,0,3.18-.75,18.14,18.14,0,0,0,3.71-2.58Z"/>
      <path class="cls-1" d="M654.85,268.79,651,268.3v-1.44l7.76-1.71h2c-.26,1.08-.52,2.21-.77,3.4s-.53,2.56-.85,4.14l-1.49,7.41c1-.82,2-1.5,2.78-2a17.54,17.54,0,0,1,2.22-1.29,10.57,10.57,0,0,1,1.88-.71,7.64,7.64,0,0,1,1.77-.21,3.87,3.87,0,0,1,4.06,4.07,12.49,12.49,0,0,1-.13,1.65c-.09.66-.2,1.31-.35,1.95l-1.27,6.05a16.91,16.91,0,0,0-.48,3.2,2.33,2.33,0,0,0,.55,1.65,1.9,1.9,0,0,0,1.46.59,6.2,6.2,0,0,0,1.14-.11c.38-.07.91-.2,1.58-.37v1.62c-.79.29-1.5.53-2.15.72s-1.22.35-1.75.46-1,.21-1.47.27a12.48,12.48,0,0,1-1.38.08,3.63,3.63,0,0,1-2.52-.81,2.88,2.88,0,0,1-.9-2.26,7.3,7.3,0,0,1,.06-.94c.05-.31.14-.78.28-1.42l1.51-7.28c.11-.5.21-1,.28-1.58A11.59,11.59,0,0,0,665,282a2.84,2.84,0,0,0-.55-1.82,1.81,1.81,0,0,0-1.47-.68,5.33,5.33,0,0,0-2.41.68,21.09,21.09,0,0,0-3.25,2.21l-2.67,15h-5.44Z"/>
      <path class="cls-2" d="M190.89,140.54c-9,1.48-13.65,8.11-13.65,19.88s6.13,19.68,15.53,19.68c4.35,0,8.4-1.48,16.71-5.54v9.6c-10.08,4.64-15.92,6-24,6-8.8,0-14.94-2.37-20-7.42a27,27,0,0,1-7.71-19.58c0-16.92,12.46-28.29,30.75-28.29,12.17,0,20.48,5.54,20.48,13.65,0,5.24-3.86,8.8-9.69,8.8-3,0-5.34-.79-8.51-2.57Z"/>
      <path class="cls-2" d="M146.38,163.09c8.11-10.19,11-14.34,11-19.29a9,9,0,0,0-9.2-9,10.69,10.69,0,0,0-7.61,3.16v20.78l-13.25,17.7V136.19H114.74l-21,34.71V136.19H86.35l-19,4.64v4.85l10.39,1.09V189.4H91.2l20.07-33v33h14.64Z"/>
      <path class="cls-2" d="M27.31,205.91l8.7,2v5H1.89v-5l7.81-2V146.37H1.1v-5.14L22,134.9H27.4V142c9.79-5.83,13.16-6.82,18.1-6.82,11.58,0,20.08,10.68,20.08,25.41,0,17.12-11.37,28.59-29.37,28.59a81.19,81.19,0,0,1-8.9-.5Zm0-23.24c1.38.1,2.07.1,3,.1,10.78,0,16.62-6.72,16.62-19.68,0-10.88-4.75-16.72-13.45-16.72a48.81,48.81,0,0,0-6,.6v35.7Z"/>
      <rect class="cls-3" x="268.13" y="65.27" width="13.25" height="26.11"/>
      <rect class="cls-4" x="231.54" y="10.18" width="10.19" height="15.93"/>
      <rect class="cls-5" x="179.42" width="52.12" height="10.19"/>
      <polygon class="cls-6" points="179.42 65.27 179.42 65.27 179.42 10.19 231.54 10.19 231.54 26.11 179.42 26.11 179.42 65.27"/>
      <rect class="cls-7" x="241.73" y="26.11" width="26.41" height="39.17"/>
      <rect class="cls-8" x="241.73" y="65.27" width="26.41" height="26.11"/>
      <rect class="cls-9" x="231.54" y="26.11" width="10.19" height="39.17"/>
      <rect class="cls-10" x="231.54" y="65.27" width="10.19" height="26.11"/>
      <polygon class="cls-11" points="231.54 65.27 211.96 65.27 211.96 52.22 179.41 52.22 179.41 65.27 179.41 26.11 231.54 26.11 231.54 65.27"/>
      <rect class="cls-12" x="211.96" y="65.27" width="19.58" height="26.11"/>
      <rect class="cls-13" x="179.42" y="52.22" width="32.54" height="13.06"/>
      <rect class="cls-14" x="179.42" y="65.27" width="32.54" height="26.11"/>
      <rect class="cls-14" x="127.2" y="91.38" width="52.22" height="13.06"/>
      <polygon class="cls-15" points="486.31 0.4 550 64.09 612.31 64.09 612.31 127.38 675.61 63.99 675.61 0.59 612.12 63.88 548.62 0.4 486.31 0.4"/>
      <path class="cls-16" d="M511.83,86.24c-1-2.18-4.06-2.57-7.52-2.47h-3.16v8.6c3.76-.2,7.61,1,10.18-1.58a4.71,4.71,0,0,0,.5-4.55m.59,13.35c-2.08-3.46-7.81-2.27-11.37-2.37v9.19c2.87-.09,6.23.3,9-.29a5.6,5.6,0,0,0,2.67-2.57,4.6,4.6,0,0,0-.3-4m2.67-21.46a9.15,9.15,0,0,1,6.13,6.72c.7,3.27-.79,6-3.36,7.92a21.19,21.19,0,0,1-3.46,1.48v.2a9.57,9.57,0,0,1,7.42,5c1.28,3.06.69,5.83-.89,8.6-3.07,4-7.91,4.85-13,4.65H490.76V77.14c8.41.2,18.3-.59,24.33,1"/>
      <path class="cls-16" d="M538,77.54l.1,16.42s8.21-11,12.06-16.32h11.47L548.82,93.76l13.55,19.48H550s-11.77-18.69-11.87-18.59v18.49H527.65l-.09-35.6Z"/>
      <path class="cls-16" d="M576.12,77.44V94.06l12.46-16.52h11.57L587,93.86c4.16,6.62,13.26,19.38,13.26,19.38H588s-11.77-18.39-11.86-18.39v18.29H565.83V77.54h10.29Z"/>
      <rect class="cls-15" x="549.71" y="127.29" width="62.61" height="62.7"/>
    </g>
  </g>
</svg>