<?xml version="1.0" encoding="UTF-8" standalone="no"?>
<!-- Created with Inkscape (http://www.inkscape.org/) -->
<svg
   xmlns:dc="http://purl.org/dc/elements/1.1/"
   xmlns:cc="http://web.resource.org/cc/"
   xmlns:rdf="http://www.w3.org/1999/02/22-rdf-syntax-ns#"
   xmlns:svg="http://www.w3.org/2000/svg"
   xmlns="http://www.w3.org/2000/svg"
   xmlns:sodipodi="http://sodipodi.sourceforge.net/DTD/sodipodi-0.dtd"
   xmlns:inkscape="http://www.inkscape.org/namespaces/inkscape"
   id="svg2"
   sodipodi:version="0.32"
   inkscape:version="0.45.1"
   width="627"
   height="543"
   version="1.0"
   sodipodi:docbase="C:\Users\TML\Desktop"
   sodipodi:docname="TD.svg"
   inkscape:output_extension="org.inkscape.output.svg.inkscape">
  <metadata
     id="metadata7">
    <rdf:RDF>
      <cc:Work
         rdf:about="">
        <dc:format>image/svg+xml</dc:format>
        <dc:type
           rdf:resource="http://purl.org/dc/dcmitype/StillImage" />
      </cc:Work>
    </rdf:RDF>
  </metadata>
  <defs
     id="defs5" />
  <sodipodi:namedview
     inkscape:window-height="864"
     inkscape:window-width="1424"
     inkscape:pageshadow="2"
     inkscape:pageopacity="0.0"
     guidetolerance="10.0"
     gridtolerance="10.0"
     objecttolerance="10.0"
     borderopacity="1.0"
     bordercolor="#666666"
     pagecolor="#ffffff"
     id="base"
     inkscape:zoom="0.69429098"
     inkscape:cx="313.5"
     inkscape:cy="271.5"
     inkscape:window-x="0"
     inkscape:window-y="0"
     inkscape:current-layer="svg2" />
  <path
     style="fill:#007701;fill-opacity:1"
     d="M 0,271.5 L 0,0 L 313.5,0 L 627,0 L 627,271.5 L 627,543 L 313.5,543 L 0,543 L 0,271.5 z "
     id="path2159" />
  <path
     style="fill:#ffffff;fill-opacity:1"
     d="M 422,440.90973 C 451.10835,439.89457 464.30437,438.00157 481.5,432.37432 C 517.06077,420.73709 537.78397,399.53799 550.78329,361.5 C 558.10587,340.07299 560.99073,326.25052 562.9927,303 C 564.26179,288.26091 564.30113,219.61028 563.04409,213.29922 C 562.51834,210.65965 560.88953,202.23537 559.42449,194.5786 C 554.56622,169.18754 548.10706,151.91484 537.76884,136.66832 C 532.03015,128.20507 515.75605,112.52978 508.01363,108.00796 C 500.4635,103.59845 481.10016,95.716181 471.18549,93.016273 C 453.5395,88.211014 439.90171,87.882468 237,87.374556 C 133.325,87.115032 46.925,86.812088 45,86.701347 L 41.5,86.5 L 41.231125,109.93112 C 41.083243,122.81824 41.320636,133.72064 41.758664,134.15866 C 42.196692,134.59669 67.742686,135.24602 98.527539,135.60161 C 129.31239,135.9572 154.725,136.45581 155,136.70964 C 155.275,136.96347 155.32446,205.01367 155.1099,287.93231 L 154.71981,438.69346 L 157.1099,439.33308 C 158.42446,439.68486 175.1375,439.97884 194.25,439.98635 L 229,440 L 229.00923,436.75 C 229.40147,298.57858 230.76047,137.90614 231.54353,137.12337 C 231.88651,136.78052 274.09203,136.5 325.33357,136.5 C 427.34747,136.5 423.20943,136.27339 437.29049,142.63116 C 449.4528,148.1226 462.47738,159.68089 467.8812,169.77802 C 469.75707,173.28312 474.7468,189.0501 476.95518,198.4508 C 480.96681,215.52759 483.25203,245.58662 482.50871,271.5 C 481.69626,299.82342 480.6122,309.18749 475.50984,331.95609 C 467.81372,366.29899 453.72029,382.91291 426.5,389.73091 C 418.00944,391.85758 332.16126,392.83874 330.84366,390.82417 C 330.35852,390.0824 330.26949,338.5907 330.64125,273.75 L 331.30489,158 L 293.15244,158 L 255,158 L 254.87891,183.75 C 254.81231,197.9125 254.66304,216.025 254.54718,224 C 253.93978,265.81241 253.88116,439.2146 254.47424,439.8083 C 254.85427,440.18873 283.36554,440.61784 317.83261,440.76186 C 374.11658,440.99705 387.90844,441.15673 394.5,441.64952 C 395.6,441.73176 407.975,441.39885 422,440.90973 z "
     id="path2161" />
</svg>
