<?xml version="1.0" encoding="UTF-8"?>
<svg width="1105" height="320.64" version="1.1" viewBox="0 0 1105 320.64" xmlns="http://www.w3.org/2000/svg" xmlns:cc="http://creativecommons.org/ns#" xmlns:dc="http://purl.org/dc/elements/1.1/" xmlns:rdf="http://www.w3.org/1999/02/22-rdf-syntax-ns#">
 <g fill="#cc0001">
  <path d="m341.53 1.2573-27.893 77.907h-313.64l29.92-77.907zm-259.13 139.81h111.12l-61.92 179.17h-113.97l64.773-179.17"/>
  <path d="m364.91 0.030602h192.69s87.333-4.1067 93.893 82.827c3.28 45.507-25.84 99.213-77.493 114.8l64.373 120.95h-114.39l-84.053-177.95h73.387s29.933-4.92 29.933-34.027c0-31.573-28.707-28.293-29.933-28.293h-176.71zm-50.853 141.04h111.52l-66.827 177.53h-109.05c0.827-3.6933 64.36-177.53 64.36-177.53"/>
  <path d="m1105 0.030602h-89.8l-27.88 78.72h88.56zm-59.04 141.04h-182.45v179.57h108.24zm-197.21 0h-181.23v179.57h108.24zm-82-141.04h-96.773v78.72h96.773zm182.85 0h-114.8l-29.92 78.72h144.72v-78.72"/>
 </g>
</svg>
