<?xml version="1.0" encoding="UTF-8" standalone="no"?>
<!-- Created with Inkscape (http://www.inkscape.org/) -->

<svg
   width="262.28131mm"
   height="103.72752mm"
   viewBox="0 0 262.28131 103.72751"
   version="1.1"
   id="svg1317"
   inkscape:version="1.2 (dc2aedaf03, 2022-05-15)"
   sodipodi:docname="WITF 2022.svg"
   xml:space="preserve"
   xmlns:inkscape="http://www.inkscape.org/namespaces/inkscape"
   xmlns:sodipodi="http://sodipodi.sourceforge.net/DTD/sodipodi-0.dtd"
   xmlns="http://www.w3.org/2000/svg"
   xmlns:svg="http://www.w3.org/2000/svg"><sodipodi:namedview
     id="namedview1319"
     pagecolor="#ffffff"
     bordercolor="#999999"
     borderopacity="1"
     inkscape:showpageshadow="0"
     inkscape:pageopacity="0"
     inkscape:pagecheckerboard="0"
     inkscape:deskcolor="#d1d1d1"
     inkscape:document-units="mm"
     showgrid="false"
     inkscape:zoom="0.55118716"
     inkscape:cx="681.2568"
     inkscape:cy="563.32953"
     inkscape:current-layer="layer1" /><defs
     id="defs1314"><clipPath
       clipPathUnits="userSpaceOnUse"
       id="clipPath1739"><path
         d="m -23.6654,-42.516399 h 91.44 V 18.8046 h -91.44 z"
         id="path1741"
         style="stroke-width:0.999996" /></clipPath><clipPath
       clipPathUnits="userSpaceOnUse"
       id="clipPath1743"><path
         d="m -33.9436,-52.164399 h 91.44 V 9.1565999 h -91.44 z"
         id="path1745"
         style="stroke-width:0.999996" /></clipPath><clipPath
       clipPathUnits="userSpaceOnUse"
       id="clipPath1747"><path
         d="m -30.0373,-41.091999 h 91.44 V 20.229 h -91.44 z"
         id="path1749"
         style="stroke-width:0.999996" /></clipPath><clipPath
       clipPathUnits="userSpaceOnUse"
       id="clipPath1751"><path
         d="m -50.348502,-40.153399 h 91.44 V 21.1676 h -91.44 z"
         id="path1753"
         style="stroke-width:0.999996" /></clipPath><clipPath
       clipPathUnits="userSpaceOnUse"
       id="clipPath1755"><path
         d="m -59.510001,-46.800699 h 91.44 V 14.5203 h -91.44 z"
         id="path1757"
         style="stroke-width:0.999996" /></clipPath><clipPath
       clipPathUnits="userSpaceOnUse"
       id="clipPath1759"><path
         d="M -85.7858,-44.882299 H 5.6542005 V 16.4387 H -85.7858 Z"
         id="path1761"
         style="stroke-width:0.999996" /></clipPath><clipPath
       clipPathUnits="userSpaceOnUse"
       id="clipPath1763"><path
         d="m -73.301201,-44.882799 h 91.44 V 16.4382 h -91.44 z"
         id="path1765"
         style="stroke-width:0.999996" /></clipPath><clipPath
       clipPathUnits="userSpaceOnUse"
       id="clipPath1767"><path
         d="m -23.6654,-42.516399 h 91.44 V 18.8046 h -91.44 z"
         id="path1769"
         style="stroke-width:0.999996" /></clipPath><clipPath
       clipPathUnits="userSpaceOnUse"
       id="clipPath1771"><path
         d="m -33.9436,-52.164399 h 91.44 V 9.1565999 h -91.44 z"
         id="path1773"
         style="stroke-width:0.999996" /></clipPath><clipPath
       clipPathUnits="userSpaceOnUse"
       id="clipPath1775"><path
         d="m -30.0373,-41.091999 h 91.44 V 20.229 h -91.44 z"
         id="path1777"
         style="stroke-width:0.999996" /></clipPath><clipPath
       clipPathUnits="userSpaceOnUse"
       id="clipPath1779"><path
         d="m -50.348502,-40.153399 h 91.44 V 21.1676 h -91.44 z"
         id="path1781"
         style="stroke-width:0.999996" /></clipPath><clipPath
       clipPathUnits="userSpaceOnUse"
       id="clipPath1783"><path
         d="m -59.510001,-46.800699 h 91.44 V 14.5203 h -91.44 z"
         id="path1785"
         style="stroke-width:0.999996" /></clipPath><clipPath
       clipPathUnits="userSpaceOnUse"
       id="clipPath1787"><path
         d="M -85.7858,-44.882299 H 5.6542005 V 16.4387 H -85.7858 Z"
         id="path1789"
         style="stroke-width:0.999996" /></clipPath><clipPath
       clipPathUnits="userSpaceOnUse"
       id="clipPath1791"><path
         d="m -73.301201,-44.882799 h 91.44 V 16.4382 h -91.44 z"
         id="path1793"
         style="stroke-width:0.999996" /></clipPath><clipPath
       clipPathUnits="userSpaceOnUse"
       id="clipPath1795"><path
         d="M -8.5205003,-9.3764989 H 82.9195 V 51.9445 H -8.5205003 Z"
         id="path1797"
         style="stroke-width:0.999996" /></clipPath><clipPath
       clipPathUnits="userSpaceOnUse"
       id="clipPath1799"><path
         d="m -15.0909,-8.6348972 h 91.44 V 52.686102 h -91.44 z"
         id="path1801"
         style="stroke-width:0.999996" /></clipPath><clipPath
       clipPathUnits="userSpaceOnUse"
       id="clipPath1803"><path
         d="m -29.5036,-5.2342 h 91.44 v 61.320999 h -91.44 z"
         id="path1805"
         style="stroke-width:0.999996" /></clipPath><clipPath
       clipPathUnits="userSpaceOnUse"
       id="clipPath1807"><path
         d="m -21.5952,-12.217199 h 91.44 v 61.320998 h -91.44 z"
         id="path1809"
         style="stroke-width:0.999996" /></clipPath><clipPath
       clipPathUnits="userSpaceOnUse"
       id="clipPath1811"><path
         d="m -39.3401,-9.6913974 h 91.44 V 51.629601 h -91.44 z"
         id="path1813"
         style="stroke-width:0.999996" /></clipPath><clipPath
       clipPathUnits="userSpaceOnUse"
       id="clipPath1815"><path
         d="m -17.4679,-8.7340974 h 91.44 V 52.586901 h -91.44 z"
         id="path1817"
         style="stroke-width:0.999996" /></clipPath><clipPath
       clipPathUnits="userSpaceOnUse"
       id="clipPath1819"><path
         d="M -86.6434,-10.916599 H 4.7965996 V 50.4044 H -86.6434 Z"
         id="path1821"
         style="stroke-width:0.999996" /></clipPath><clipPath
       clipPathUnits="userSpaceOnUse"
       id="clipPath1823"><path
         d="m -70.671099,-11.170998 h 91.44 v 61.320999 h -91.44 z"
         id="path1825"
         style="stroke-width:0.999996" /></clipPath><clipPath
       clipPathUnits="userSpaceOnUse"
       id="clipPath1827"><path
         d="m -58.9569,-5.4393001 h 91.44 V 55.881699 h -91.44 z"
         id="path1829"
         style="stroke-width:0.999996" /></clipPath><clipPath
       clipPathUnits="userSpaceOnUse"
       id="clipPath5430"><path
         d="M -58.956897,-5.4393051 H 32.483099 V 55.881701 h -91.439996 z"
         id="path5432"
         style="stroke-width:0.999999" /></clipPath><clipPath
       clipPathUnits="userSpaceOnUse"
       id="clipPath5436"><path
         d="M -8.5204949,-9.3765031 H 82.919501 V 51.944503 H -8.5204949 Z"
         id="path5438"
         style="stroke-width:0.999999" /></clipPath><clipPath
       clipPathUnits="userSpaceOnUse"
       id="clipPath5442"><path
         d="M -59.509995,-46.800705 H 31.930001 V 14.520301 H -59.509995 Z"
         id="path5444"
         style="stroke-width:0.999999" /></clipPath><clipPath
       clipPathUnits="userSpaceOnUse"
       id="clipPath5448"><path
         d="M -70.671097,-11.171002 H 20.768899 V 50.150003 H -70.671097 Z"
         id="path5450"
         style="stroke-width:0.999999" /></clipPath><clipPath
       clipPathUnits="userSpaceOnUse"
       id="clipPath5454"><path
         d="M -21.595195,-12.217204 H 69.844801 V 49.103802 H -21.595195 Z"
         id="path5456"
         style="stroke-width:0.999999" /></clipPath><clipPath
       clipPathUnits="userSpaceOnUse"
       id="clipPath5460"><path
         d="M -73.301197,-44.882804 H 18.138799 V 16.438202 H -73.301197 Z"
         id="path5462"
         style="stroke-width:0.999999" /></clipPath><clipPath
       clipPathUnits="userSpaceOnUse"
       id="clipPath5466"><path
         d="M -17.467897,-8.7341051 H 73.972099 V 52.586901 h -91.439996 z"
         id="path5468"
         style="stroke-width:0.999999" /></clipPath><clipPath
       clipPathUnits="userSpaceOnUse"
       id="clipPath5472"><path
         d="M -85.785796,-44.882303 H 5.6542004 V 16.438703 H -85.785796 Z"
         id="path5474"
         style="stroke-width:0.999999" /></clipPath><clipPath
       clipPathUnits="userSpaceOnUse"
       id="clipPath5478"><path
         d="M -39.340097,-9.6914034 H 52.099899 V 51.629602 h -91.439996 z"
         id="path5480"
         style="stroke-width:0.999999" /></clipPath><clipPath
       clipPathUnits="userSpaceOnUse"
       id="clipPath5484"><path
         d="M -30.037297,-41.092004 H 61.402699 V 20.229002 H -30.037297 Z"
         id="path5486"
         style="stroke-width:0.999999" /></clipPath><clipPath
       clipPathUnits="userSpaceOnUse"
       id="clipPath5490"><path
         d="M -33.943594,-52.164403 H 57.496402 V 9.1566026 h -91.439996 z"
         id="path5492"
         style="stroke-width:0.999999" /></clipPath><clipPath
       clipPathUnits="userSpaceOnUse"
       id="clipPath5496"><path
         d="M -15.090897,-8.634903 H 76.349099 V 52.686103 H -15.090897 Z"
         id="path5498"
         style="stroke-width:0.999999" /></clipPath><clipPath
       clipPathUnits="userSpaceOnUse"
       id="clipPath5502"><path
         d="M -23.665396,-42.516403 H 67.7746 v 61.321006 h -91.439996 z"
         id="path5504"
         style="stroke-width:0.999999" /></clipPath><clipPath
       clipPathUnits="userSpaceOnUse"
       id="clipPath5508"><path
         d="M -50.348494,-40.153403 H 41.091502 V 21.167603 H -50.348494 Z"
         id="path5510"
         style="stroke-width:0.999999" /></clipPath><clipPath
       clipPathUnits="userSpaceOnUse"
       id="clipPath5514"><path
         d="M -86.643396,-10.916603 H 4.7966002 V 50.404402 H -86.643396 Z"
         id="path5516"
         style="stroke-width:0.999999" /></clipPath><clipPath
       clipPathUnits="userSpaceOnUse"
       id="clipPath5520"><path
         d="M -73.301197,-44.882804 H 18.138799 V 16.438202 H -73.301197 Z"
         id="path5522"
         style="stroke-width:0.999999" /></clipPath><clipPath
       clipPathUnits="userSpaceOnUse"
       id="clipPath5526"><path
         d="M -33.943594,-52.164403 H 57.496402 V 9.1566026 h -91.439996 z"
         id="path5528"
         style="stroke-width:0.999999" /></clipPath><clipPath
       clipPathUnits="userSpaceOnUse"
       id="clipPath5532"><path
         d="M -50.348494,-40.153403 H 41.091502 V 21.167603 H -50.348494 Z"
         id="path5534"
         style="stroke-width:0.999999" /></clipPath><clipPath
       clipPathUnits="userSpaceOnUse"
       id="clipPath5538"><path
         d="M -85.785796,-44.882303 H 5.6542004 V 16.438703 H -85.785796 Z"
         id="path5540"
         style="stroke-width:0.999999" /></clipPath><clipPath
       clipPathUnits="userSpaceOnUse"
       id="clipPath5544"><path
         d="M -30.037297,-41.092004 H 61.402699 V 20.229002 H -30.037297 Z"
         id="path5546"
         style="stroke-width:0.999999" /></clipPath><clipPath
       clipPathUnits="userSpaceOnUse"
       id="clipPath5550"><path
         d="M -23.665396,-42.516403 H 67.7746 v 61.321006 h -91.439996 z"
         id="path5552"
         style="stroke-width:0.999999" /></clipPath><clipPath
       clipPathUnits="userSpaceOnUse"
       id="clipPath5556"><path
         d="M -29.503595,-5.234203 H 61.936401 V 56.086803 H -29.503595 Z"
         id="path5558"
         style="stroke-width:0.999999" /></clipPath><clipPath
       clipPathUnits="userSpaceOnUse"
       id="clipPath5562"><path
         d="M -59.509995,-46.800705 H 31.930001 V 14.520301 H -59.509995 Z"
         id="path5564"
         style="stroke-width:0.999999" /></clipPath></defs><g
     inkscape:label="Layer 1"
     inkscape:groupmode="layer"
     id="layer1"
     transform="translate(348.75867,-310.11426)"><g
       id="g14492"><path
         d="m 0,0 0.006,11.659 -5.194,-0.003 -0.02,-12.771 c -0.045,-2.081 1.616,-3.637 3.675,-3.597 l 9.801,-0.006 4.216,4.717 z"
         style="fill:#00dfa2;fill-opacity:1;fill-rule:nonzero;stroke:none"
         id="path351-1"
         transform="matrix(2.8934867,0,0,-2.8934867,-137.81243,357.67798)"
         clip-path="url(#clipPath5520)" /><path
         d="m 0,0 h 5.253 l 0.004,16.43 -13.468,0.009 -4.268,-4.78 h 12.476 z"
         style="fill:#00dfa2;fill-opacity:1;fill-rule:nonzero;stroke:none"
         id="path355-2"
         transform="matrix(2.8934867,0,0,-2.8934867,-101.68841,357.67943)"
         clip-path="url(#clipPath5472)" /><path
         d="m 0,0 c 0,1.764 0.585,3.074 2.701,3.074 0.838,0 2.126,-0.018 2.756,-0.018 V 9.739 L 1.853,9.747 c -5.709,0 -9.446,-3.2 -9.446,-8.624 v -21.66 L 0,-20.533 v 13.897 l 4.214,-0.011 -0.017,6.642 z"
         style="fill:#1f292e;fill-opacity:1;fill-rule:nonzero;stroke:none"
         id="path359-7"
         transform="matrix(2.8934867,0,0,-2.8934867,-177.71709,352.12856)"
         clip-path="url(#clipPath5442)" /><path
         d="m 0,0 -0.004,6.644 h -3.4 l 0.005,5.97 h -7.637 v -18.2 c 0,-3.762 1.116,-8.286 7.539,-8.288 1.77,-10e-4 3.486,0 3.486,0 v 6.853 h -1.074 c -1.672,0 -2.314,0.866 -2.314,2.081 v 4.934 z"
         style="fill:#1f292e;fill-opacity:1;fill-rule:nonzero;stroke:none"
         id="path363-1"
         transform="matrix(2.8934867,0,0,-2.8934867,-204.22577,371.36244)"
         clip-path="url(#clipPath5532)" /><path
         id="path367-9"
         clip-path="url(#clipPath5484)"
         style="fill:#1f292e;fill-opacity:1;fill-rule:nonzero;stroke:none"
         d="m -14.572873,1.7284512 c -0.761999,0 -1.455962,-0.2241277 -2.082962,-0.6731272 -0.625999,-0.4489996 -1.117058,-1.18998193 -1.473057,-2.2229809 l -1.880077,-5.4100214 -2.692866,8.0030526 h -6.938087 l 5.795967,-14.3269483 c 0.407,-0.998999 0.926999,-1.702037 1.561998,-2.109037 0.634999,-0.405999 1.334,-0.609011 2.095999,-0.609011 0.66,0 1.274144,0.203012 1.841144,0.609011 0.566999,0.407 1.053913,1.110038 1.460913,2.109037 l 2.311028,5.7398878 2.413007,-5.7398878 c 0.422999,-1.015999 0.918917,-1.723003 1.485916,-2.121003 0.567,-0.397999 1.2061188,-0.597045 1.9181181,-0.597045 0.7109992,0 1.3749501,0.199046 1.9929495,0.597045 0.6189994,0.398 1.1390701,1.105004 1.5630697,2.121003 L 1.5255168e-6,1.8787707e-6 V -14.840945 H 7.6999771 V 1.4239455 l -14.0719135,5.358e-4 -2.715012,-7.9760846 -1.9490146,5.3789457 c -0.355,1.03299899 -0.742868,1.74412245 -1.387868,2.210122 -0.630999,0.4549995 -1.336043,0.6909868 -2.149042,0.6909868 z"
         transform="matrix(2.8934867,0,0,-2.8934867,-262.99595,368.64661)"
         sodipodi:nodetypes="scccccccsccccssccccccccccs" /><path
         d="m 0,0 c -2.333,0 -4.224,-1.891 -4.224,-4.224 0,-2.333 1.891,-4.224 4.224,-4.224 2.333,0 4.224,1.891 4.224,4.224 C 4.224,-1.891 2.333,0 0,0"
         style="fill:#1f292e;fill-opacity:1;fill-rule:nonzero;stroke:none"
         id="path371-9"
         transform="matrix(2.8934867,0,0,-2.8934867,-251.69313,336.60877)"
         clip-path="url(#clipPath5490)" /></g></g></svg>
